<svg width="476" height="513" viewBox="0 0 476 513" fill="none" xmlns="http://www.w3.org/2000/svg">
<path d="M137.009 194.288H95.6438C94.4923 194.288 93.3521 194.06 92.2889 193.619C91.2251 193.178 90.2585 192.531 89.4452 191.716C88.6314 190.9 87.9867 189.932 87.5467 188.867C87.1072 187.802 86.8816 186.66 86.8832 185.508V85.9687C86.8832 84.8173 87.11 83.6773 87.55 82.6137C87.9906 81.5507 88.6359 80.5844 89.4498 79.7704C90.263 78.9565 91.229 78.3112 92.2917 77.8713C93.3544 77.4315 94.4934 77.2051 95.6438 77.2062H163.935C165.088 77.2023 166.229 77.4264 167.295 77.8645C168.361 78.3032 169.33 78.948 170.146 79.7619C170.962 80.5759 171.611 81.5433 172.053 82.608C172.495 83.6733 172.724 84.8151 172.724 85.9687V112.816" stroke="#CCDDE2" stroke-width="4.5" stroke-miterlimit="10"/>
<path d="M161.86 89.2678H98.613C96.1924 89.2678 94.2299 91.232 94.2299 93.6547V105.474C94.2299 107.897 96.1924 109.861 98.613 109.861H161.86C164.28 109.861 166.243 107.897 166.243 105.474V93.6547C166.243 91.232 164.28 89.2678 161.86 89.2678Z" stroke="#CCDDE2" stroke-width="4.5" stroke-miterlimit="10"/>
<path d="M129.792 97.9366C130.967 97.9366 131.919 96.9842 131.919 95.8101C131.919 94.6354 130.967 93.6836 129.792 93.6836C128.618 93.6836 127.666 94.6354 127.666 95.8101C127.666 96.9842 128.618 97.9366 129.792 97.9366Z" fill="#D7E8F0"/>
<path d="M123.848 105.445C123.798 104.635 123.914 103.823 124.19 103.059C124.466 102.295 124.896 101.595 125.452 101.003C126.008 100.412 126.68 99.9402 127.425 99.6178C128.171 99.2954 128.975 99.1292 129.787 99.1292C130.599 99.1292 131.402 99.2954 132.148 99.6178C132.893 99.9402 133.565 100.412 134.122 101.003C134.678 101.595 135.107 102.295 135.383 103.059C135.659 103.823 135.775 104.635 135.725 105.445H123.848Z" fill="#D7E8F0"/>
<path d="M130.228 131.931C127.961 131.931 125.744 132.604 123.859 133.865C121.974 135.126 120.504 136.918 119.637 139.014C118.769 141.111 118.542 143.418 118.984 145.644C119.427 147.87 120.518 149.914 122.122 151.518C123.725 153.123 125.767 154.216 127.991 154.659C130.215 155.101 132.52 154.874 134.615 154.006C136.71 153.137 138.5 151.667 139.76 149.78C141.019 147.893 141.692 145.674 141.692 143.405C141.692 141.898 141.397 140.406 140.821 139.014C140.245 137.621 139.4 136.356 138.336 135.29C137.271 134.225 136.007 133.38 134.616 132.804C133.225 132.227 131.733 131.931 130.228 131.931ZM130.228 152.105C129.831 152.04 129.471 151.835 129.21 151.528C128.95 151.222 128.807 150.832 128.807 150.43C128.807 150.027 128.95 149.638 129.21 149.331C129.471 149.024 129.831 148.82 130.228 148.754C130.47 148.714 130.719 148.728 130.957 148.793C131.194 148.859 131.414 148.976 131.602 149.135C131.789 149.294 131.94 149.493 132.044 149.717C132.147 149.94 132.201 150.184 132.201 150.43C132.201 150.676 132.147 150.92 132.044 151.144C131.94 151.367 131.789 151.565 131.602 151.725C131.414 151.884 131.194 152.001 130.957 152.066C130.719 152.132 130.47 152.145 130.228 152.105ZM132.349 139.205C132.076 141.743 131.609 144.256 130.952 146.722C130.883 146.854 130.779 146.964 130.652 147.041C130.525 147.118 130.379 147.159 130.231 147.159C130.082 147.159 129.937 147.118 129.809 147.041C129.682 146.964 129.579 146.854 129.51 146.722C128.986 144.904 128.585 143.052 128.311 141.181C128.079 139.822 127.287 137.614 128.045 136.29C128.712 135.107 130.601 134.965 131.693 135.582C133.033 136.346 132.507 137.965 132.349 139.205Z" fill="#D7E8F0"/>
<path d="M101.429 119.054H157.426" stroke="#CCDDE2" stroke-width="4.5" stroke-miterlimit="10"/>
<path d="M101.429 124.573H157.426" stroke="#CCDDE2" stroke-width="4.5" stroke-miterlimit="10"/>
<path d="M101.429 160.092H157.426" stroke="#CCDDE2" stroke-width="4.5" stroke-miterlimit="10"/>
<path d="M114.437 165.313H144.418" stroke="#CCDDE2" stroke-width="4.5" stroke-miterlimit="10"/>
<path d="M447.366 173.016H361.531C354.385 173.016 348.591 178.815 348.591 185.968V332.693C348.591 339.846 354.385 345.645 361.531 345.645H447.366C454.513 345.645 460.307 339.846 460.307 332.693V185.968C460.307 178.815 454.513 173.016 447.366 173.016Z" fill="#A3CAD3"/>
<path d="M330.035 173.016H270.267C263.12 173.016 257.327 178.815 257.327 185.968V332.693C257.327 339.846 263.12 345.645 270.267 345.645H330.035C337.182 345.645 342.975 339.846 342.975 332.693V185.968C342.975 178.815 337.182 173.016 330.035 173.016Z" fill="#A3CAD3"/>
<path d="M262.275 433.428H459.69C463.101 433.426 466.372 432.07 468.784 429.656C471.197 427.242 472.554 423.969 472.557 420.556V175.292C472.557 173.601 472.225 171.926 471.579 170.363C470.932 168.8 469.984 167.38 468.79 166.184C467.595 164.988 466.176 164.04 464.615 163.393C463.053 162.746 461.38 162.413 459.69 162.414H325.528L290.463 162.624H290.361L272.631 163.314H272.574L267.908 163.496H267.495L267.15 166.275L266.472 171.443C266.479 171.453 266.483 171.464 266.483 171.477C266.483 171.489 266.479 171.501 266.472 171.511L260.952 179.696L259.821 181.354L256.704 201.313V201.41C256.637 201.381 256.569 201.342 256.484 201.296C256.416 201.257 256.351 201.211 256.292 201.161C255.243 200.37 254.455 199.284 254.029 198.042C252.994 195.415 252.745 191.934 252.734 189.172L252.055 204.336V204.393L251.111 224.652L250.879 230.091C251.32 229.304 251.954 228.172 252.689 226.82L250.342 241.831L249.855 252.648L248.645 279.983L248.6 281.002V281.392L248.283 288.049V288.202C248.283 288.202 247.378 307.736 247.378 307.765L247.293 309.576L246.247 317.484L243.193 339.611V420.556C243.194 422.862 243.815 425.125 244.991 427.108C246.167 429.091 247.856 430.721 249.878 431.826C253.707 433.903 257.943 433.626 262.151 433.484C263.282 433.45 264.413 433.399 265.544 433.337" fill="#A3CAD3"/>
<path d="M254.782 429.205C254.702 429.205 254.618 429.132 254.521 429.104C253.446 428.718 252.43 428.184 251.501 427.519C249.872 426.36 248.545 424.827 247.63 423.047C246.716 421.269 246.242 419.296 246.247 417.296V309.271L243.193 310.737L243.001 310.833L242.588 309.809L240.546 304.714L239.981 303.305L234.817 290.404C234.817 290.404 244.624 250.69 251.111 224.652C253.486 215.092 255.421 207.371 256.235 204.127C256.484 203.159 256.631 202.593 256.659 202.497C256.661 202.474 256.661 202.452 256.659 202.429C256.676 202.236 256.647 202.042 256.574 201.863C256.494 201.654 256.397 201.451 256.286 201.257C256.273 201.217 256.254 201.179 256.229 201.144C255.557 199.999 254.801 198.905 253.967 197.872L252.893 184.553L253.068 184.417L253.882 183.766L259.447 179.351L260.743 175.921L263.282 169.253L264.413 166.281H267.105H267.795H272.665L290.661 166.225H292.205L326.348 166.021H456.987C458.632 166.021 460.261 166.345 461.78 166.976C463.3 167.606 464.681 168.531 465.843 169.696C467.005 170.86 467.927 172.243 468.555 173.765C469.182 175.287 469.505 176.918 469.503 178.564V417.296C469.505 418.942 469.182 420.573 468.555 422.095C467.927 423.616 467.005 424.999 465.843 426.165C464.681 427.33 463.3 428.253 461.78 428.884C460.261 429.515 458.632 429.839 456.987 429.839H262.513" fill="#A3CAD3"/>
<path d="M267.852 162.748L272.478 162.72H272.574L290.333 162.624H290.457L325.522 162.414H459.69C463.102 162.416 466.374 163.773 468.787 166.188C471.199 168.602 472.555 171.877 472.557 175.292V420.556C472.554 423.969 471.197 427.242 468.784 429.656C466.372 432.07 463.101 433.426 459.69 433.428H255.709C252.385 433.428 249.197 432.106 246.847 429.753C244.497 427.401 243.176 424.211 243.176 420.884V394.104" stroke="#333333" stroke-width="4.5" stroke-miterlimit="10"/>
<path d="M447.367 358.322H270.267C263.12 358.322 257.327 364.121 257.327 371.273V407.28C257.327 414.433 263.12 420.231 270.267 420.231H447.367C454.513 420.231 460.307 414.433 460.307 407.28V371.273C460.307 364.121 454.513 358.322 447.367 358.322Z" fill="white"/>
<path d="M388.814 372.114H274.412C271.992 372.114 270.029 374.078 270.029 376.501V402.946C270.029 405.369 271.992 407.333 274.412 407.333H388.814C391.235 407.333 393.197 405.369 393.197 402.946V376.501C393.197 374.078 391.235 372.114 388.814 372.114Z" fill="#A3CAD3"/>
<path d="M368.29 386.949C370.301 386.949 371.932 385.317 371.932 383.303C371.932 381.29 370.301 379.658 368.29 379.658C366.278 379.658 364.647 381.29 364.647 383.303C364.647 385.317 366.278 386.949 368.29 386.949Z" fill="white"/>
<path d="M358.121 399.786C358.121 397.084 359.193 394.492 361.103 392.581C363.012 390.67 365.601 389.597 368.301 389.597C371.001 389.597 373.59 390.67 375.5 392.581C377.409 394.492 378.481 397.084 378.481 399.786H358.121Z" fill="white"/>
<path d="M424.269 372.118C420.722 372.115 417.254 373.164 414.303 375.134C411.353 377.104 409.052 379.905 407.693 383.184C406.333 386.463 405.976 390.072 406.666 393.554C407.357 397.036 409.064 400.235 411.571 402.746C414.078 405.257 417.273 406.967 420.752 407.66C424.23 408.353 427.836 407.998 431.113 406.639C434.39 405.281 437.19 402.98 439.16 400.028C441.131 397.076 442.181 393.606 442.18 390.056C442.181 387.701 441.718 385.369 440.818 383.193C439.919 381.017 438.6 379.04 436.936 377.374C435.273 375.708 433.299 374.387 431.125 373.485C428.952 372.583 426.622 372.119 424.269 372.118ZM424.269 403.664C423.914 403.68 423.56 403.624 423.228 403.5C422.896 403.376 422.592 403.185 422.335 402.94C422.079 402.695 421.874 402.4 421.735 402.073C421.595 401.747 421.523 401.395 421.523 401.04C421.523 400.685 421.595 400.333 421.735 400.007C421.874 399.68 422.079 399.386 422.335 399.14C422.592 398.895 422.896 398.704 423.228 398.58C423.56 398.456 423.914 398.4 424.269 398.417C424.943 398.448 425.579 398.738 426.045 399.227C426.511 399.715 426.772 400.364 426.772 401.04C426.772 401.716 426.511 402.365 426.045 402.853C425.579 403.342 424.943 403.632 424.269 403.664ZM427.566 383.484C427.001 387.379 426.542 391.466 425.383 395.235C425.123 396.147 423.409 396.147 423.121 395.235C422.299 392.394 421.671 389.501 421.243 386.575C420.881 384.452 419.643 380.999 420.83 378.939C421.877 377.088 424.829 376.867 426.526 377.807C428.641 379.007 427.792 381.548 427.566 383.484Z" fill="#A3CAD3"/>
<path d="M443.306 297.807C442.437 305.307 439.335 312.373 434.403 318.086C429.47 323.799 422.936 327.896 415.648 329.844C408.359 331.793 400.654 331.503 393.532 329.012C386.411 326.522 380.202 321.945 375.712 315.878C371.223 309.81 368.66 302.531 368.355 294.987C368.052 287.443 370.021 279.982 374.009 273.572C377.996 267.163 383.817 262.101 390.715 259.045C397.614 255.989 405.271 255.079 412.692 256.435C413.018 256.497 413.328 256.627 413.602 256.814C413.877 257.002 414.11 257.243 414.288 257.524C414.466 257.806 414.584 258.12 414.635 258.449C414.686 258.777 414.67 259.113 414.587 259.435L413.846 262.327L407.206 288.275C407.1 288.689 407.105 289.123 407.22 289.534C407.334 289.946 407.556 290.32 407.86 290.619C408.165 290.917 408.543 291.131 408.956 291.237C409.37 291.343 409.804 291.339 410.215 291.224L435.987 284.013L439.511 283.028C439.825 282.939 440.153 282.915 440.477 282.956C440.8 282.998 441.112 283.103 441.394 283.268C441.675 283.432 441.921 283.651 442.116 283.912C442.312 284.173 442.453 284.472 442.531 284.788C443.546 289.05 443.808 293.456 443.306 297.807Z" fill="white"/>
<path d="M444.194 271.067C444.316 271.383 444.37 271.721 444.353 272.06C444.336 272.399 444.248 272.73 444.095 273.033C443.942 273.335 443.727 273.602 443.465 273.816C443.202 274.031 442.897 274.187 442.571 274.276L440.144 274.956L419.156 280.825C418.745 280.94 418.311 280.944 417.898 280.838C417.485 280.732 417.107 280.519 416.802 280.22C416.497 279.921 416.276 279.547 416.161 279.136C416.046 278.724 416.042 278.29 416.148 277.876L421.571 256.751L422.092 254.725C422.174 254.403 422.321 254.101 422.524 253.838C422.727 253.575 422.983 253.358 423.274 253.198C423.566 253.039 423.887 252.941 424.218 252.912C424.548 252.882 424.881 252.921 425.197 253.027C429.466 254.501 433.371 256.875 436.648 259.986C439.925 263.098 442.498 266.876 444.194 271.067Z" fill="white"/>
<path d="M405.419 206.775C411.129 206.775 415.757 202.142 415.757 196.427C415.757 190.713 411.129 186.08 405.419 186.08C399.709 186.08 395.08 190.713 395.08 196.427C395.08 202.142 399.709 206.775 405.419 206.775Z" fill="#D7E8F0"/>
<path d="M443.555 219.296H368.295V221.365H443.555V219.296Z" fill="#D7E8F0"/>
<path d="M443.555 226.959H368.295V229.029H443.555V226.959Z" fill="#D7E8F0"/>
<path d="M443.555 233.947H368.295V236.016H443.555V233.947Z" fill="#D7E8F0"/>
<path d="M329.798 262.576H270.843V264.646H329.798V262.576Z" fill="#D7E8F0"/>
<path d="M329.798 270.937H270.843V273.007H329.798V270.937Z" fill="#D7E8F0"/>
<path d="M329.798 279.292H270.843V281.362H329.798V279.292Z" fill="#D7E8F0"/>
<path d="M329.798 287.653H270.843V289.723H329.798V287.653Z" fill="#D7E8F0"/>
<path d="M329.798 296.013H270.843V298.083H329.798V296.013Z" fill="#D7E8F0"/>
<path d="M262.756 203.708C262.756 203.708 280.673 231.948 301.09 240.824C321.506 249.7 327.886 253.622 335.696 250.447C343.507 247.271 358.5 242.822 369.064 211.389C379.629 179.957 384.663 163.411 385.036 155.798C385.409 148.184 364.404 154.439 364.404 154.439C364.404 154.439 353.093 187.808 328.31 202.701L293.013 165.387L262.756 203.708Z" fill="white"/>
<path d="M241.819 247.107L256.241 251.024C256.241 251.024 239.494 274.136 254.386 298.335C269.277 322.533 299.942 371.355 299.942 371.355L358.636 464.753L303.742 457.094L262.756 412.161L241.83 391.28L215.605 309.344L241.819 247.107Z" fill="white"/>
<path d="M6.34167 366.543C7.63839 367.245 9.13939 367.472 10.5852 367.183C12.031 366.895 13.3308 366.11 14.2595 364.964L35.6038 338.773L52.8251 317.139L38.7257 309.214C37.2654 308.388 35.537 308.177 33.9212 308.626C32.3048 309.075 30.9328 310.147 30.1065 311.608L3.83058 357.798C3.412 358.535 3.14478 359.348 3.04461 360.189C2.94445 361.031 3.01334 361.885 3.24725 362.699C3.48117 363.514 3.87542 364.274 4.40683 364.934C4.93823 365.594 5.59603 366.141 6.34167 366.543Z" fill="#2E2E2E"/>
<path d="M331.234 490.084L348.998 507.575C350.532 509.088 352.597 509.937 354.75 509.941H399.175C400.553 509.947 401.903 509.55 403.06 508.801C404.217 508.052 405.131 506.982 405.69 505.721C406.25 504.461 406.431 503.064 406.211 501.703C405.991 500.342 405.38 499.073 404.452 498.054C403.284 496.746 401.67 495.923 399.927 495.744L375.286 493.214L331.234 490.084Z" fill="#2E2E2E"/>
<path d="M169.008 271.315C169.008 271.315 203.366 280.881 226.272 283.734C249.177 286.587 247.571 277.077 247.571 277.077L250.37 265.066C257.722 253.077 261.992 227.571 261.992 227.571L264.945 207.617L269.254 215.208L283.184 229.252L283.354 229.388C282.929 222.68 283.252 213.255 284.813 200.417C288.41 170.7 300.32 174.147 300.32 174.147L298.573 172.228C290.344 158.524 264.074 144.039 255.681 140.574C247.288 137.11 250.879 142.018 251.948 145.669C253.017 149.32 249.963 159.594 237.73 154.363C225.497 149.133 224.88 137.755 224.88 137.755H219.196C184.329 141.95 166.599 160.562 166.599 160.562C203.638 169.307 195.137 200.751 195.137 200.751L191.778 203.825C178.629 215.236 177.712 226.24 178.849 230.825C179.986 235.41 188.096 241.58 202.738 245.158C217.381 248.735 220.045 248.741 223.353 242.407C226.662 236.073 230.519 235.291 235.796 234.34C241.072 233.39 247.537 237.142 246.061 240.097C244.584 243.052 243.515 240.471 247.192 248.452C250.868 256.433 249.16 260.492 239.274 267.845C229.388 275.198 185.432 271.071 185.432 271.071C164.41 265.252 169.008 271.315 169.008 271.315Z" fill="#2E2E2E"/>
<path d="M249.369 137.944V139.15V139.455C259.196 141.913 268.451 146.262 276.618 152.259C277.941 153.227 279.231 154.212 280.503 155.248C280.537 151.088 280.181 146.91 278.841 142.97C277.755 139.589 275.709 136.598 272.953 134.361C270.527 132.425 267.659 131.185 264.775 130.064C261.891 128.944 259.057 127.959 256.41 126.447C254.18 125.226 252.231 123.548 250.693 121.523C250.153 120.79 249.816 119.928 249.717 119.024C249.618 118.119 249.759 117.204 250.127 116.372C249.867 116.354 249.611 116.303 249.363 116.219L249.369 137.944Z" fill="#A3CAD3"/>
<path d="M249.369 137.944V139.15V139.455C259.196 141.913 268.451 146.262 276.618 152.259C277.941 153.227 279.231 154.212 280.503 155.248C280.537 151.088 280.181 146.91 278.841 142.97C277.755 139.589 275.709 136.598 272.953 134.361C270.527 132.425 267.659 131.185 264.775 130.064C261.891 128.944 259.057 127.959 256.41 126.447C254.18 125.226 252.231 123.548 250.693 121.523C250.153 120.79 249.816 119.928 249.717 119.024C249.618 118.119 249.759 117.204 250.127 116.372C249.867 116.354 249.611 116.303 249.363 116.219L249.369 137.944Z" fill="#A3CAD3"/>
<path d="M113.595 231.92C117.287 234.565 121.392 236.579 125.743 237.881C127.614 238.458 129.516 238.934 131.438 239.307C123.843 221.392 129.527 197.821 153.495 172.689C157.599 168.378 161.968 164.329 166.576 160.564C174.025 154.501 180.642 149.984 188.447 146.35C191.941 144.737 195.529 143.336 199.192 142.156C205.688 139.992 212.393 138.517 219.196 137.758C220.74 137.571 222.267 137.435 223.811 137.35C223.435 134.696 223.509 131.998 224.032 129.369C225.457 122.152 227.94 118.003 232.453 112.314C235.281 108.731 239.698 100.172 233.81 97.2172C230.095 95.3663 229.755 91.5567 231.503 89.2926C232.979 87.3227 235.965 86.4227 239.647 88.7265C242.192 90.3567 245.212 90.4586 248.13 89.6605C250.397 88.3388 252.362 86.5574 253.899 84.4302C258.175 78.2999 258.328 69.011 251.637 64.5109C247.989 62.0486 243.34 61.4542 238.98 61.9297C237.027 62.1443 235.103 62.5654 233.239 63.1864C233.231 63.1824 233.222 63.1807 233.214 63.1807C233.205 63.1807 233.196 63.1824 233.188 63.1864C225.27 67.4487 219.643 75.3281 216.928 84.2094C215.334 89.4567 213.535 94.653 211.431 99.7475C209.701 103.925 208.496 109.002 204.644 111.855C203.035 113.047 201.207 113.912 199.266 114.403C191.987 119.021 181.892 116.355 173.934 115.37C167.572 114.5 161.095 115.151 155.033 117.272C148.247 120.708 142.41 126.193 137.676 133.326C129.855 145.128 138.134 162.143 125.053 171.449C121.094 174.251 116.57 175.949 112.243 178.123C106.067 181.264 101.079 185.73 99.2351 192.608C95.5928 206.482 102.074 223.548 113.595 231.92Z" fill="#A3CAD3"/>
<path d="M433.448 509.94H123.95" stroke="#333333" stroke-width="4.5" stroke-miterlimit="10"/>
<path d="M260.72 78.8416C261.515 80.4911 262.195 82.1932 262.756 83.9361C263.57 86.7663 262.688 88.5211 263.927 91.2212C264.351 92.1551 264.962 93.7344 265.623 95.3307C265.81 94.9571 265.98 94.6514 266.081 94.4137C270.934 83.5965 264.554 78.3832 261.483 76.6001C261.288 77.3665 261.033 78.116 260.72 78.8416Z" fill="#A3CAD3"/>
<path d="M260.72 78.8416C261.515 80.4911 262.195 82.1932 262.756 83.9361C263.57 86.7663 262.688 88.5211 263.927 91.2212C264.351 92.1551 264.962 93.7344 265.623 95.3307C265.81 94.9571 265.98 94.6514 266.081 94.4137C270.934 83.5965 264.554 78.3832 261.483 76.6001C261.288 77.3665 261.033 78.116 260.72 78.8416Z" fill="#A3CAD3"/>
<path d="M153.195 261.331C150.232 284.721 152.63 325.295 200.488 356.337C209.101 361.924 216.855 369.815 224.45 376.636C245.166 395.372 264.874 415.197 283.489 436.026C294.885 448.671 306.519 461.962 318.074 474.766C323.997 481.31 329.984 487.793 336.036 494.216C340.492 498.919 347.562 509.935 354.728 509.935H398.762C402.721 509.935 406.318 506.691 406.262 502.712C406.229 500.992 405.579 499.342 404.429 498.065C403.261 496.757 401.648 495.933 399.905 495.755L375.263 493.225L256.207 303.723C250.065 293.942 244.618 277.843 249.369 267.298C267.467 227.187 265.912 188.311 265.912 188.311" stroke="#333333" stroke-width="4.5" stroke-miterlimit="10"/>
<path d="M214.836 368.529C209.644 386.784 201.262 405.323 194.34 416.995C191.832 421.256 188.525 424.992 184.601 427.999C170.417 438.872 150.368 437.712 136.766 426.125L69.119 368.495L35.6095 338.772L14.2652 364.963C13.2562 366.192 11.8231 366.998 10.2494 367.221C8.67577 367.444 7.07575 367.068 5.76523 366.168C4.45471 365.268 3.52894 363.909 3.17077 362.359C2.8126 360.81 3.04804 359.182 3.83055 357.797L30.1122 311.619C30.9385 310.158 32.3105 309.085 33.9269 308.636C35.5427 308.187 37.2711 308.399 38.7314 309.224L52.8308 317.149L133.616 362.433C134.959 363.185 136.463 363.608 138.002 363.666C139.541 363.724 141.071 363.415 142.468 362.765C143.864 362.115 145.087 361.142 146.034 359.928C146.982 358.712 147.628 357.29 147.919 355.776L157.488 305.556" stroke="#333333" stroke-width="4.5" stroke-miterlimit="10"/>
<path d="M249.369 112.856V137.762V138.967V139.273C251.931 143.009 253.221 148.33 250.777 152.292C247.503 157.607 240.275 156.724 235.694 153.753C234.346 152.88 233.058 151.915 231.842 150.866C227.765 147.32 225.125 142.403 224.422 137.043C224.046 134.389 224.12 131.69 224.643 129.062C226.079 121.85 228.556 117.707 233.075 112.001C235.903 108.435 240.314 99.8647 234.421 96.9099C227.516 93.4627 232.3 83.3757 240.258 88.4192C246.434 92.3419 255.307 87.4512 258.972 82.1926C263.248 76.0623 263.401 66.7735 256.71 62.2734C253.062 59.8111 248.413 59.2167 244.053 59.6922C230.768 61.1526 221.312 71.5452 217.528 83.9078C215.933 89.155 214.135 94.3514 212.031 99.4458C210.3 103.623 209.095 108.701 205.244 111.554C197.892 117.039 187.293 114.169 178.996 113.15C161.724 111.027 147.794 118.686 138.276 133.024C130.454 144.826 138.734 161.841 125.653 171.147C121.694 173.949 117.169 175.647 112.843 177.821C106.667 180.963 101.678 185.429 99.8629 192.306C96.1981 206.163 102.691 223.229 114.2 231.601C119.477 235.439 125.653 237.732 132.066 238.988" stroke="#333333" stroke-width="4.5" stroke-miterlimit="10"/>
<path d="M283.467 158.474C283.501 158.157 283.512 157.851 283.529 157.551C283.817 152.078 283.783 146.406 282.002 141.136C280.909 137.759 278.862 134.77 276.109 132.532C273.677 130.602 270.809 129.351 267.936 128.23C265.063 127.109 262.213 126.136 259.572 124.619C257.336 123.403 255.386 121.722 253.854 119.688C253.317 118.958 252.982 118.099 252.883 117.197C252.783 116.296 252.924 115.384 253.288 114.554" stroke="#333333" stroke-width="4.5" stroke-miterlimit="10"/>
<path d="M244.013 107.241C246.015 110.105 248.73 113.195 252.152 114.31C256.58 115.754 259.56 111.99 261.15 108.327C262.1 106.148 262.756 103.827 263.525 101.574C263.774 100.833 263.927 100.476 264.775 100.442C265.623 100.408 266.517 100.578 267.388 100.578C267.45 100.576 267.511 100.558 267.563 100.526C267.616 100.494 267.659 100.448 267.689 100.393C267.718 100.338 267.732 100.277 267.73 100.215C267.728 100.153 267.709 100.092 267.676 100.04C266.506 98.2573 264.758 93.3949 263.876 91.4477C262.648 88.7477 263.536 86.9986 262.711 84.1627C262.148 82.4215 261.473 80.7194 260.686 79.0682" stroke="#333333" stroke-width="4.5" stroke-miterlimit="10"/>
<path d="M261.992 73.8323C261.992 73.8323 274.067 78.4682 267.829 92.3987C267.444 93.2421 266.5 95.0025 266.053 95.795" stroke="#333333" stroke-width="4.5" stroke-miterlimit="10"/>
<path d="M392.236 34.1138C392.236 34.1138 392.303 34.1477 392.439 34.1986L392.236 34.1138Z" fill="#A3CAD3"/>
<path d="M261.325 107.923C260.359 108.056 259.377 107.831 258.563 107.292C257.75 106.753 257.162 105.936 256.908 104.993" stroke="#333333" stroke-width="4.5" stroke-miterlimit="10"/>
<path d="M263.367 89.2689C260.867 87.2329 258.124 89.8345 256.45 91.7234" stroke="#333333" stroke-width="4.5" stroke-miterlimit="10"/>
<path d="M224.439 137.048C216.055 137.58 207.775 139.191 199.803 141.843C186.795 146.111 177.837 151.618 167.21 160.251C162.602 164.023 158.233 168.078 154.129 172.392C130.137 197.525 124.465 221.107 132.072 239.016C138.253 253.609 152.505 262.66 167.108 267.274C176.661 270.285 186.614 271.581 196.602 271.87C208.507 272.209 220.514 271.757 232.233 269.492C237.17 268.541 242.859 267.76 245.806 263.17C248.753 258.579 249.001 252.386 246.813 247.467C244.76 242.888 239.217 237.963 234.206 241.558C233.651 241.959 233.194 242.482 232.869 243.086C232.545 243.69 232.362 244.36 232.334 245.045" stroke="#333333" stroke-width="4.5" stroke-miterlimit="10"/>
<path d="M215.384 167.332C216.007 186.102 200.114 196.568 200.114 196.568C194.843 200.842 189.719 205.432 185.41 210.691C182.655 214.048 180.099 217.806 178.832 222.012C177.885 224.88 177.901 227.979 178.877 230.837C179.957 233.48 181.741 235.774 184.035 237.471C188.322 240.827 193.537 242.565 198.706 244.071C204.402 245.702 210.203 246.939 216.069 247.773C219.462 248.26 220.893 247.207 222.443 244.269C223.845 241.609 224.993 238.529 227.589 236.791C231.186 234.374 236.016 233.814 240.179 234.81C246.598 236.339 248.238 241.433 243.006 242.463" stroke="#333333" stroke-width="4.5" stroke-miterlimit="10"/>
<path d="M211.465 294.676L113.934 271.089L90.7234 367.227L185.551 390.82L188.594 389.421L211.465 294.676Z" fill="white"/>
<path d="M166.463 281.16C171.09 248.748 181.117 240.733 187.644 239.131L187.214 238.893C167.51 231.218 153.846 269.194 150.944 278.075L166.463 281.16Z" fill="#D7E8F0"/>
<path d="M166.192 283.729C170.818 251.317 181.117 240.709 187.644 239.13L187.214 238.892C167.51 231.217 153.28 271.021 150.368 279.897L166.192 283.729Z" fill="#D7E8F0"/>
<path d="M187.214 238.892C164.931 230.22 150.368 279.897 150.368 279.897L166.203 283.729C175.405 233.916 195.149 242.973 195.149 242.973C194.453 242.764 187.214 238.892 187.214 238.892Z" stroke="#333333" stroke-width="4.5" stroke-miterlimit="10"/>
<path d="M112.848 275.671L90.7268 367.258L167.672 385.875L189.793 294.288L112.848 275.671Z" fill="#A3CAD3"/>
<path d="M114.022 270.823L90.7285 367.262L171.747 386.865L195.04 290.425L114.022 270.823Z" fill="white"/>
<path d="M114.403 278.158L94.3418 361.216C93.7735 363.571 95.2196 365.941 97.5723 366.511L165.997 383.066C168.35 383.636 170.719 382.188 171.288 379.833L191.349 296.775C191.918 294.419 190.471 292.049 188.118 291.48L119.694 274.925C117.341 274.355 114.972 275.803 114.403 278.158Z" fill="#A3CAD3"/>
<path d="M113.95 271.124L90.7296 367.26L171.749 386.863L194.968 290.726L113.95 271.124Z" stroke="#333333" stroke-width="4.5" stroke-miterlimit="10"/>
<path d="M195.309 290.802L172.088 386.939L188.262 390.852L211.481 294.715L195.309 290.802Z" fill="white"/>
<path d="M195.309 290.802L172.088 386.939L188.262 390.852L211.481 294.715L195.309 290.802Z" stroke="#333333" stroke-width="4.5" stroke-miterlimit="10"/>
<path d="M188.255 390.821L183.046 377.411L172.079 386.91" stroke="#333333" stroke-width="4.5" stroke-miterlimit="10"/>
<path d="M203.383 292.725L183.046 377.412" stroke="#333333" stroke-width="4.5" stroke-miterlimit="10"/>
<path d="M381.795 136.772C381.49 136.823 381.23 136.874 380.896 136.942C377.836 137.476 374.936 138.695 372.413 140.508C369.647 142.647 367.136 146.366 365.914 149.564C364.067 154.421 362.036 159.199 359.823 163.897C356.482 171.139 352.507 178.072 347.946 184.614C343.213 191.271 337.529 198.018 330.369 202.162C329.47 202.705 328.523 203.166 327.541 203.537C326.336 204.047 309.386 184.529 307.52 182.356C300.038 173.644 292.301 165.018 283.529 157.563C281.306 155.661 279.005 153.827 276.64 152.112C268.468 146.109 259.208 141.755 249.375 139.291" stroke="#333333" stroke-width="4.5" stroke-miterlimit="10"/>
<path d="M412.29 136.057C412.324 136.066 412.359 136.066 412.392 136.057C420.231 136.974 417.16 145.431 411.646 145.159C405.554 144.854 399.48 145.159 393.406 145.261C391.732 145.206 390.065 145.513 388.52 146.161C385.466 147.622 385.177 150.882 384.719 153.837C384.108 157.709 383.413 161.581 382.593 165.418C380.998 173.026 379.03 180.532 376.773 187.97C375.314 192.793 373.702 197.593 372.005 202.342C367.051 216.335 360.807 231.176 350.305 241.965C344.502 247.943 336.901 252.358 328.333 251.713C316.269 250.813 304.664 244.75 294.433 237.856C294.39 237.826 294.35 237.792 294.314 237.754C290.496 235.181 286.835 232.38 283.354 229.365C283.354 229.365 269.254 216.799 264.945 207.595" stroke="#333333" stroke-width="4.5" stroke-miterlimit="10"/>
<path d="M434.579 128.452V129.245C434.579 134.713 430.179 135.652 426.379 135.743L352.816 137.441C349.592 137.526 346.883 134.701 346.815 131.175V131.028C346.815 127.569 349.349 124.694 352.533 124.614C352.533 124.614 393.683 123.454 425.553 122.577C426.158 124.507 427.64 126.001 429.478 127.167C431.014 128.092 432.789 128.539 434.579 128.452Z" stroke="#333333" stroke-width="4.5" stroke-miterlimit="10"/>
<path d="M473.66 50.5448C473.659 51.4459 473.446 52.3341 473.037 53.1373L440.161 120.639C439.775 121.419 439.225 122.106 438.548 122.653C437.872 123.2 437.085 123.594 436.242 123.809C434.883 124.153 433.447 124.004 432.187 123.39C431.18 122.894 430.332 122.126 429.739 121.172C429.146 120.219 428.833 119.118 428.833 117.995C428.838 117.097 429.043 116.212 429.433 115.403L462.326 47.8957C462.923 46.69 463.91 45.722 465.127 45.1481C466.343 44.5747 467.718 44.4292 469.027 44.7349C470.336 45.0411 471.504 45.7809 472.341 46.8343C473.178 47.8877 473.634 49.1931 473.637 50.5391L473.66 50.5448Z" stroke="#333333" stroke-width="4.5" stroke-miterlimit="10"/>
<path d="M384.199 36.6614C394.175 36.6614 402.263 28.5667 402.263 18.5816C402.263 8.59646 394.175 0.501953 384.199 0.501953C374.222 0.501953 366.135 8.59646 366.135 18.5816C366.135 28.5667 374.222 36.6614 384.199 36.6614Z" fill="#A3CAD3"/>
<path d="M378.458 24.8021C377.86 24.5777 377.299 24.2627 376.796 23.8681C375.909 23.199 375.3 22.2273 375.083 21.1376C374.866 20.0479 375.057 18.9165 375.619 17.9586C375.986 17.3365 376.492 16.8082 377.098 16.4153C377.703 16.0223 378.392 15.7755 379.109 15.6944C378.711 14.7596 378.629 13.7208 378.874 12.735C379.118 11.7492 379.677 10.87 380.466 10.2304C381.255 9.59082 382.23 9.22572 383.244 9.19023C384.258 9.15479 385.257 9.45089 386.088 10.0339C387.835 11.2509 389.046 13.3962 389.787 15.3547C390.169 16.3832 390.45 17.4468 390.624 18.5303C390.709 19.0963 391.285 22.2096 390.833 22.5266C387.847 24.5983 382.287 26.2625 378.458 24.8021Z" fill="white"/>
<g opacity="0.72">
<path opacity="0.72" d="M368.957 74.3754C374.448 74.3754 378.9 69.9206 378.9 64.4243C378.9 58.9285 374.448 54.4731 368.957 54.4731C363.466 54.4731 359.015 58.9285 359.015 64.4243C359.015 69.9206 363.466 74.3754 368.957 74.3754Z" fill="#A3CAD3"/>
<path opacity="0.72" d="M370.925 68.6469C370.685 68.9073 370.407 69.1286 370.1 69.3035C369.572 69.6114 368.951 69.7167 368.353 69.599C367.754 69.4812 367.219 69.149 366.848 68.6639C366.604 68.3463 366.438 67.9767 366.363 67.5833C366.287 67.1904 366.304 66.7851 366.412 66.3997C365.856 66.4031 365.313 66.2259 364.865 65.8947C364.418 65.563 364.09 65.0955 363.93 64.5617C363.771 64.0273 363.789 63.4562 363.982 62.9337C364.174 62.4107 364.531 61.9647 364.998 61.6618C366.059 61.0743 367.267 60.8071 368.476 60.892C369.081 60.909 369.682 60.9888 370.269 61.1297C370.569 61.1977 372.277 61.5599 372.345 61.8543C372.78 63.8185 372.469 67.0053 370.925 68.6469Z" fill="white"/>
</g>
<path d="M424.93 42.7067L415.173 47.9126C411.634 49.8004 410.295 54.2031 412.181 57.7449L417.382 67.5104C419.268 71.0527 423.667 72.3937 427.206 70.5054L436.963 65.3C440.502 63.4116 441.842 59.0095 439.955 55.4671L434.755 45.7016C432.868 42.1599 428.469 40.8189 424.93 42.7067Z" fill="#A3CAD3"/>
<path d="M428.839 67.7306L435.903 63.9607C437.375 63.1694 438.476 61.8273 438.963 60.2271C439.45 58.6263 439.286 56.8981 438.504 55.4191L433.98 46.9283C433.19 45.4532 431.849 44.3511 430.25 43.8632C428.65 43.3752 426.923 43.5411 425.445 44.3245L424.97 44.5792C423.206 47.0302 420.859 51.2246 424.405 52.5435C429.495 54.4511 428.007 57.3097 426.101 60.972C424.484 64.0457 424.071 67.6401 428.839 67.7306Z" fill="white"/>
<path d="M417.839 57.4466C419.313 57.4466 420.508 56.251 420.508 54.7771C420.508 53.3027 419.313 52.1077 417.839 52.1077C416.364 52.1077 415.169 53.3027 415.169 54.7771C415.169 56.251 416.364 57.4466 417.839 57.4466Z" fill="white"/>
<path d="M384.957 102.044C385.946 102.525 386.999 102.861 388.084 103.04C390.077 103.346 392.114 103.129 393.997 102.411C395.881 101.693 397.546 100.498 398.83 98.9421C399.82 97.7082 400.561 96.1628 401.601 94.9175C402.313 94.009 403.265 93.319 404.35 92.925C404.722 92.8458 405.069 92.6765 405.362 92.4326C406.075 91.6967 404.865 91.0741 404.621 90.4797C404.257 89.5208 404.257 88.4612 404.621 87.5023C405.55 84.9817 405.576 82.2165 404.695 79.6783C403.814 77.1402 402.081 74.9864 399.792 73.5843C397.502 72.1816 394.797 71.6178 392.138 71.988C389.48 72.3588 387.031 73.6409 385.211 75.6152C383.413 77.5568 382.333 80.0361 381.213 82.4078C380.217 84.5192 379.16 86.6192 378.611 88.8891C377.339 94.2666 380.212 99.729 384.957 102.044Z" fill="#A3CAD3"/>
<path d="M395.058 82.936C396.448 82.936 397.574 81.8094 397.574 80.4192C397.574 79.0291 396.448 77.9025 395.058 77.9025C393.668 77.9025 392.541 79.0291 392.541 80.4192C392.541 81.8094 393.668 82.936 395.058 82.936Z" fill="white"/>
<path d="M391.761 89.8877C393.151 89.8877 394.277 88.7611 394.277 87.371C394.277 85.9814 393.151 84.8542 391.761 84.8542C390.37 84.8542 389.244 85.9814 389.244 87.371C389.244 88.7611 390.37 89.8877 391.761 89.8877Z" fill="white"/>
<path d="M388.667 96.4087C390.057 96.4087 391.184 95.2816 391.184 93.892C391.184 92.5018 390.057 91.3752 388.667 91.3752C387.277 91.3752 386.15 92.5018 386.15 93.892C386.15 95.2816 387.277 96.4087 388.667 96.4087Z" fill="white"/>
<g opacity="0.54">
<path opacity="0.54" d="M328.254 112.306C329.018 112.205 329.774 112.048 330.516 111.837L339.033 109.437C341.64 108.701 344.383 107.886 346.233 105.899C349.66 102.214 348.552 96.3608 347.222 91.5041C346.141 87.5304 345.056 83.5568 343.971 79.5831C343.224 76.8434 342.455 74.0585 340.967 71.6584C339.48 69.2584 337.127 67.198 334.322 66.7564C332.258 66.4338 330.165 66.9885 328.146 67.5376L319.974 69.8018C317.293 70.532 314.465 71.3528 312.588 73.4075C309.251 77.0585 310.325 82.7869 311.603 87.5587L314.867 99.7571C316.869 107.087 320.618 113.269 328.254 112.306Z" fill="#A3CAD3"/>
<path opacity="0.54" d="M327.688 95.6708C328.193 96.1638 328.818 96.5147 329.501 96.6891C330.184 96.8634 330.901 96.8544 331.58 96.6636C332.259 96.4723 332.875 96.1061 333.367 95.6006C333.859 95.0957 334.211 94.4696 334.384 93.7858L335.334 90.0612L336.279 86.331C336.453 85.6472 336.443 84.9294 336.251 84.2507C336.06 83.5715 335.694 82.955 335.189 82.4631C334.684 81.9707 334.058 81.6203 333.375 81.4465C332.692 81.2733 331.974 81.2824 331.296 81.4742L327.603 82.5158L323.904 83.5573C323.227 83.7503 322.613 84.1188 322.122 84.6249C321.632 85.1309 321.284 85.7575 321.112 86.4413C320.94 87.1246 320.951 87.8417 321.143 88.5199C321.336 89.198 321.703 89.8133 322.208 90.3046L324.962 92.9877L327.688 95.6708Z" fill="white"/>
</g>
</svg>
