<svg width="840" height="378" viewBox="0 0 840 378" fill="none"
    xmlns="http://www.w3.org/2000/svg">
    <path d="M840 377.304H0C9.2046 353.834 26.1989 333.924 50.1635 328.017C85.2147 319.388 122.309 343.115 157.283 334.193C177.152 329.13 192.795 314.375 209.233 302.122C271.245 255.891 356.226 242.227 429.605 266.697C467.962 279.482 502.912 301.839 542.204 311.343C593.011 323.639 646.145 313.441 698.395 311.762C749.283 310.127 822.194 330.86 840 377.304Z" fill="#F3F5FD"/>
    <path d="M350.004 316.664C346.387 315.481 342.675 316.812 339.124 319.51C343.802 307.699 345.733 297.03 337.735 296.549C332.14 296.214 327.853 300.506 324.597 306.609C323.452 295.879 320.497 287.875 313.877 290.529C306.611 293.442 305.505 303.425 306.608 313.871C303.406 308.536 299.959 305.56 296.829 308.69C287.489 318.03 310.416 344.348 310.416 344.348C310.416 344.348 330.137 351.84 337.814 343.805C348.22 332.916 358.642 319.491 350.004 316.664Z" fill="#8DDBE0"/>
    <path d="M339.796 377.304H307.57L302.176 339.688H345.19L339.796 377.304Z" fill="#C1D8ED"/>
    <path d="M545.753 377.304H429.226C420.677 370.483 420.089 355.115 428.948 348.251C435.777 342.963 446.101 344.378 452.52 349.879C451.319 345.783 451.294 341.433 452.448 337.324C454.535 329.925 459.175 322.408 466.258 319.416C484.335 311.789 497.18 327.769 499.754 336.703C504.384 329.897 514.736 326.3 521.238 330.882C529.47 336.684 529.098 345.832 522.531 352.398C531.284 350.767 537.871 352.026 543.942 358.539C548.559 363.498 549.266 371.947 545.753 377.304Z" fill="#8DDBE0"/>
    <path d="M670.033 4.71582H519.255C507.708 4.71582 498.348 14.0754 498.348 25.6211V351.683C498.348 363.229 507.708 372.589 519.255 372.589H670.033C681.58 372.589 690.94 363.229 690.94 351.683V25.6211C690.94 14.0754 681.58 4.71582 670.033 4.71582Z" fill="white"/>
    <path d="M670.037 377.304H519.255C512.461 377.296 505.949 374.595 501.145 369.791C496.342 364.988 493.64 358.476 493.632 351.683V25.6234C493.64 18.8307 496.342 12.3184 501.145 7.51518C505.949 2.71196 512.461 0.0100462 519.255 0.00219727H670.037C676.83 0.0110027 683.342 2.71331 688.144 7.51641C692.947 12.3195 695.649 18.8313 695.657 25.6234V351.683C695.649 358.476 692.947 364.987 688.144 369.79C683.342 374.593 676.83 377.295 670.037 377.304ZM519.255 9.43103C514.961 9.43601 510.846 11.1437 507.81 14.1793C504.775 17.215 503.068 21.3307 503.064 25.6234V351.683C503.069 355.976 504.776 360.091 507.811 363.126C510.847 366.161 514.962 367.868 519.255 367.873H670.037C674.329 367.867 678.444 366.16 681.478 363.125C684.513 360.09 686.219 355.975 686.224 351.683V25.6234C686.22 21.3313 684.514 17.216 681.479 14.1804C678.444 11.1448 674.33 9.43678 670.037 9.43103H519.255Z" fill="#DEE8F5"/>
    <path d="M561.63 4.71578H627.658V17.5224C627.658 20.0653 626.648 22.504 624.85 24.3021C623.052 26.1002 620.613 27.1104 618.07 27.1104H571.219C568.676 27.1104 566.237 26.1002 564.439 24.3021C562.641 22.504 561.63 20.0653 561.63 17.5224V4.71289V4.71578Z" fill="#DEE8F5"/>
    <path d="M655.806 267.058L655.749 217.384C655.768 217.083 655.722 216.781 655.616 216.498C655.509 216.216 655.344 215.959 655.131 215.745C654.918 215.53 654.662 215.364 654.38 215.256C654.098 215.148 653.797 215.1 653.495 215.117L594.644 215.173L535.793 215.117C535.492 215.101 535.19 215.148 534.908 215.256C534.626 215.364 534.37 215.531 534.157 215.745C533.944 215.959 533.779 216.216 533.673 216.498C533.566 216.781 533.521 217.083 533.539 217.384L533.483 267.058L533.478 274.474C533.46 274.776 533.506 275.079 533.614 275.362C533.721 275.645 533.887 275.902 534.1 276.116C534.314 276.331 534.57 276.497 534.853 276.606C535.135 276.714 535.438 276.761 535.74 276.745L546.073 276.756L580.658 276.789L580.664 276.812L594.644 276.8L608.624 276.812L608.63 276.789L643.215 276.751L653.548 276.74C653.851 276.756 654.153 276.709 654.436 276.601C654.718 276.492 654.975 276.325 655.188 276.111C655.402 275.897 655.568 275.64 655.675 275.357C655.782 275.074 655.829 274.771 655.811 274.469L655.806 267.058Z" fill="#8DDBE0"/>
    <path opacity="0.47" d="M648.988 230.916C646.597 230.911 644.306 229.961 642.614 228.273C640.921 226.585 639.964 224.297 639.952 221.907L594.643 221.946L549.334 221.907C549.321 224.297 548.364 226.585 546.672 228.273C544.979 229.961 542.688 230.911 540.298 230.916L540.266 260.946C541.289 260.945 542.306 261.121 543.269 261.468C544.417 261.878 545.471 262.515 546.369 263.34C547.267 264.165 547.99 265.161 548.496 266.271C549.03 267.436 549.301 268.704 549.292 269.986L578.804 270.012L578.811 270.037L594.641 270.025L610.471 270.037L610.478 270.012L639.991 269.986C639.982 268.704 640.254 267.436 640.786 266.271C641.292 265.161 642.015 264.165 642.913 263.34C643.811 262.515 644.865 261.878 646.013 261.468C646.977 261.121 647.993 260.945 649.017 260.946L648.988 230.916Z" fill="white"/>
    <path d="M558.794 251.479C561.91 251.479 564.436 248.953 564.436 245.837C564.436 242.721 561.91 240.195 558.794 240.195C555.677 240.195 553.151 242.721 553.151 245.837C553.151 248.953 555.677 251.479 558.794 251.479Z" fill="#8DDBE0"/>
    <path d="M630.495 251.479C633.611 251.479 636.138 248.953 636.138 245.837C636.138 242.721 633.611 240.195 630.495 240.195C627.378 240.195 624.852 242.721 624.852 245.837C624.852 248.953 627.378 251.479 630.495 251.479Z" fill="#8DDBE0"/>
    <path d="M604.592 229.22C607.346 230.801 609.654 233.053 611.304 235.765C612.954 238.477 613.891 241.563 614.028 244.735C614.113 247.849 614.028 251.479 610.744 256.756C609.036 259.374 606.68 261.503 603.904 262.938C602.735 263.582 601.498 264.094 600.215 264.462C598.409 265.008 596.532 265.284 594.645 265.278C591.233 265.278 587.881 264.377 584.928 262.666C581.976 260.956 579.528 258.495 577.831 255.535C576.139 252.63 575.246 249.33 575.242 245.969C575.235 245.931 575.243 245.896 575.236 245.862C575.248 240.714 577.3 235.781 580.943 232.144C584.586 228.507 589.523 226.463 594.671 226.458C595.021 226.466 595.37 226.474 595.715 226.498C598.855 226.649 601.907 227.585 604.592 229.22Z" fill="#8DDBE0"/>
    <path d="M593.466 257.879V255.023C592.559 254.909 591.67 254.673 590.826 254.322C589.949 253.978 589.142 253.48 588.443 252.849L590.273 250.024C590.907 250.524 591.603 250.942 592.342 251.267C592.978 251.54 593.663 251.681 594.355 251.683C594.979 251.736 595.603 251.565 596.112 251.199C596.308 251.008 596.46 250.776 596.556 250.519C596.652 250.263 596.691 249.988 596.669 249.715C596.673 249.478 596.625 249.243 596.529 249.026C596.433 248.809 596.292 248.615 596.114 248.458C595.688 248.076 595.218 247.745 594.715 247.472C594.154 247.158 593.551 246.844 592.907 246.532C592.266 246.22 591.659 245.842 591.098 245.402C590.546 244.974 590.072 244.451 589.7 243.859C589.312 243.204 589.12 242.451 589.145 241.689C589.098 240.423 589.509 239.181 590.303 238.192C591.121 237.243 592.248 236.613 593.485 236.411V233.47H596.256V236.354C597.103 236.465 597.919 236.748 598.654 237.184C599.337 237.603 599.961 238.113 600.509 238.699L598.393 241.096C597.951 240.671 597.452 240.31 596.91 240.024C596.403 239.777 595.845 239.653 595.282 239.662C594.725 239.624 594.172 239.775 593.711 240.09C593.518 240.264 593.368 240.482 593.274 240.724C593.179 240.967 593.143 241.228 593.167 241.488C593.166 241.71 593.215 241.93 593.311 242.131C593.408 242.331 593.549 242.507 593.723 242.645C594.153 242.998 594.622 243.3 595.122 243.545C595.683 243.832 596.287 244.127 596.934 244.432C597.577 244.736 598.183 245.11 598.743 245.548C599.303 245.985 599.777 246.522 600.141 247.133C600.532 247.834 600.724 248.63 600.696 249.432C600.728 250.699 600.335 251.94 599.579 252.958C598.74 253.995 597.552 254.69 596.236 254.911V257.88L593.466 257.879Z" fill="white"/>
    <path d="M130.132 372.589H280.911C292.458 372.589 301.818 363.229 301.818 351.684L301.818 25.6212C301.818 14.0756 292.458 4.71591 280.911 4.71591H130.132C118.586 4.71591 109.226 14.0756 109.226 25.6212L109.226 351.684C109.226 363.229 118.586 372.589 130.132 372.589Z" fill="white"/>
    <path d="M104.509 351.683V25.6234C104.516 18.8305 107.218 12.3179 112.021 7.51427C116.824 2.71062 123.337 0.00823281 130.13 0H280.911C287.705 0.00785 294.218 2.71007 299.022 7.51376C303.825 12.3175 306.527 18.8303 306.534 25.6234V351.683C306.526 358.476 303.824 364.988 299.021 369.791C294.217 374.595 287.705 377.296 280.911 377.304H130.13C123.337 377.296 116.825 374.594 112.022 369.791C107.219 364.988 104.517 358.476 104.509 351.683ZM130.13 9.43101C125.837 9.43637 121.722 11.1442 118.687 14.1798C115.652 17.2154 113.945 21.3309 113.941 25.6234V351.683C113.946 355.975 115.653 360.09 118.688 363.125C121.723 366.16 125.838 367.868 130.13 367.873H280.911C285.204 367.868 289.319 366.161 292.355 363.126C295.39 360.091 297.097 355.976 297.102 351.683V25.6234C297.097 21.3311 295.39 17.2159 292.355 14.1807C289.319 11.1455 285.204 9.43816 280.911 9.43318L130.13 9.43101Z" fill="#DEE8F5"/>
    <path d="M228.947 27.1133L182.097 27.1133C179.554 27.1133 177.115 26.1031 175.317 24.305C173.519 22.5069 172.508 20.0682 172.508 17.5253V4.71581L238.536 4.71581V17.5253C238.536 20.0682 237.525 22.5069 235.727 24.305C233.929 26.1031 231.49 27.1133 228.947 27.1133Z" fill="#DEE8F5"/>
    <path d="M244.999 67.5171H166.043C160.486 67.5171 155.981 72.0216 155.981 77.5781V101.814C155.981 107.371 160.486 111.875 166.043 111.875H244.999C250.556 111.875 255.061 107.371 255.061 101.814V77.5781C255.061 72.0216 250.556 67.5171 244.999 67.5171Z" fill="#262626"/>
    <path d="M274.944 165.345H136.099C131.476 165.345 127.729 169.093 127.729 173.715V252.356C127.729 256.979 131.476 260.726 136.099 260.726H274.944C279.567 260.726 283.314 256.979 283.314 252.356V173.715C283.314 169.093 279.567 165.345 274.944 165.345Z" fill="#0CBC8B"/>
    <path d="M159.667 178.235H145.159C142.652 178.235 140.619 180.268 140.619 182.775V191.225C140.619 193.732 142.652 195.765 145.159 195.765H159.667C162.175 195.765 164.208 193.732 164.208 191.225V182.775C164.208 180.268 162.175 178.235 159.667 178.235Z" fill="white"/>
    <path d="M164.208 180.179V184.293H156.216L154.927 183.004V178.238H162.264C162.779 178.238 163.273 178.442 163.638 178.806C164.002 179.17 164.207 179.664 164.208 180.179Z" fill="#262626"/>
    <path d="M164.208 189.707V193.82C164.208 194.075 164.158 194.328 164.06 194.564C163.962 194.8 163.819 195.014 163.639 195.195C163.458 195.375 163.244 195.519 163.008 195.616C162.772 195.714 162.519 195.764 162.264 195.764H154.927V190.867L156.216 189.709L164.208 189.707Z" fill="#262626"/>
    <path d="M149.771 178.238V183.007L148.613 184.296H140.619V180.183C140.619 179.927 140.669 179.674 140.767 179.438C140.864 179.202 141.008 178.988 141.188 178.808C141.369 178.627 141.583 178.484 141.819 178.386C142.055 178.288 142.308 178.238 142.563 178.238H149.771Z" fill="#262626"/>
    <path d="M149.771 190.867V195.764H142.563C142.308 195.764 142.055 195.714 141.819 195.616C141.583 195.519 141.369 195.375 141.188 195.195C141.008 195.014 140.864 194.8 140.767 194.564C140.669 194.328 140.619 194.075 140.619 193.82V189.707H148.611L149.771 190.867Z" fill="#262626"/>
    <path d="M167.029 212.139H142.62C142.089 212.139 141.58 211.929 141.205 211.553C140.83 211.178 140.619 210.669 140.619 210.139C140.619 209.608 140.83 209.099 141.205 208.724C141.58 208.349 142.089 208.138 142.62 208.138H167.029C167.56 208.138 168.069 208.349 168.444 208.724C168.819 209.099 169.03 209.608 169.03 210.139C169.03 210.669 168.819 211.178 168.444 211.553C168.069 211.929 167.56 212.139 167.029 212.139Z" fill="white"/>
    <path d="M201.376 212.139H176.966C176.436 212.139 175.927 211.929 175.552 211.553C175.176 211.178 174.966 210.669 174.966 210.139C174.966 209.608 175.176 209.099 175.552 208.724C175.927 208.349 176.436 208.138 176.966 208.138H201.376C201.906 208.138 202.415 208.349 202.79 208.724C203.166 209.099 203.376 209.608 203.376 210.139C203.376 210.669 203.166 211.178 202.79 211.553C202.415 211.929 201.906 212.139 201.376 212.139Z" fill="white"/>
    <path d="M235.723 212.139H211.313C210.782 212.139 210.274 211.929 209.898 211.553C209.523 211.178 209.312 210.669 209.312 210.139C209.312 209.608 209.523 209.099 209.898 208.724C210.274 208.349 210.782 208.138 211.313 208.138H235.723C236.254 208.138 236.763 208.349 237.138 208.724C237.513 209.099 237.724 209.608 237.724 210.139C237.724 210.669 237.513 211.178 237.138 211.553C236.763 211.929 236.254 212.139 235.723 212.139Z" fill="white"/>
    <path d="M270.07 212.139H245.66C245.129 212.139 244.62 211.929 244.245 211.553C243.87 211.178 243.659 210.669 243.659 210.139C243.659 209.608 243.87 209.099 244.245 208.724C244.62 208.349 245.129 208.138 245.66 208.138H270.07C270.601 208.138 271.109 208.349 271.485 208.724C271.86 209.099 272.071 209.608 272.071 210.139C272.071 210.669 271.86 211.178 271.485 211.553C271.109 211.929 270.601 212.139 270.07 212.139Z" fill="white"/>
    <path d="M270.424 233.787C270.402 236.507 269.305 239.107 267.374 241.023C265.442 242.938 262.832 244.013 260.112 244.013C257.392 244.013 254.782 242.938 252.85 241.023C250.919 239.107 249.822 236.507 249.8 233.787C249.801 232.25 250.15 230.733 250.819 229.349C251.489 227.966 252.462 226.751 253.667 225.796C255.173 224.563 256.999 223.784 258.932 223.55C260.865 223.316 262.824 223.636 264.581 224.474C266.338 225.312 267.821 226.633 268.856 228.282C269.89 229.931 270.434 231.84 270.424 233.787Z" fill="white"/>
    <path d="M248.51 241.779C246.999 243.012 245.168 243.79 243.232 244.025C241.295 244.259 239.332 243.939 237.57 243.102C235.808 242.265 234.319 240.946 233.277 239.297C232.234 237.648 231.681 235.738 231.681 233.787C231.681 231.837 232.234 229.926 233.277 228.277C234.319 226.628 235.808 225.309 237.57 224.472C239.332 223.636 241.295 223.316 243.232 223.55C245.168 223.784 246.999 224.562 248.51 225.795C247.316 226.759 246.35 227.976 245.682 229.358C245.013 230.74 244.659 232.252 244.643 233.787C244.645 235.324 244.993 236.842 245.663 238.226C246.332 239.609 247.306 240.824 248.51 241.779Z" fill="#262626"/>
    <path d="M79.1249 77.2081C79.1249 77.2081 84.942 74.7098 84.942 59.4288L96.6349 58.2375C96.6349 58.2375 94.2248 71.74 99.6976 76.5369L79.1249 77.2081Z" fill="#E98862"/>
    <path d="M78.8898 53.0066C79.3093 57.6776 81.4649 62.2445 85.4057 64.065C89.6898 66.1857 94.4279 67.2259 99.2065 67.0949C111.9 67.0949 111.757 38.2225 106.227 32.1635C100.697 26.1044 82.8393 28.1897 79.9386 37.3285C78.4384 42.0545 78.4898 48.5612 78.8898 53.0066Z" fill="#E98862"/>
    <path d="M105.558 43.8902C108.022 43.8718 110.482 43.6651 112.915 43.2718C112.915 43.2718 112.17 24.5226 92.2565 25.5916C89.6706 25.4735 87.0795 25.6263 84.5254 26.0473C78.5404 26.9652 70.0584 33.0842 68.6841 48.3971C68.0562 55.4224 65.6337 62.0449 63.7863 66.2378C63.5678 66.7299 63.4757 67.2688 63.5183 67.8056C63.5608 68.3424 63.7368 68.86 64.0302 69.3115C64.3235 69.7631 64.725 70.1342 65.1982 70.3913C65.6713 70.6484 66.2012 70.7833 66.7397 70.7837L109.402 70.4459C109.907 70.4464 110.404 70.3289 110.855 70.1025C111.306 69.8762 111.698 69.5474 111.999 69.1425C112.3 68.7376 112.502 68.2678 112.589 67.7708C112.675 67.2738 112.645 66.7634 112.499 66.2804C110.179 58.5933 105.935 53.8839 105.558 43.8902Z" fill="#0F1011"/>
    <path d="M119.396 177.841C133.827 241.41 146.894 305.405 157.206 369.779L142.711 372.76C126.775 309.545 113.517 245.587 101.683 181.484L119.396 177.841Z" fill="#E98862"/>
    <path d="M89.5664 181.782C90.8916 244.935 90.7961 308.229 87.9244 371.338H73.1247C70.2544 308.23 70.159 244.934 71.4827 181.782H89.5664Z" fill="#E98862"/>
    <path d="M107.071 377.17C107.479 377.168 107.883 377.082 108.257 376.917C108.63 376.752 108.966 376.511 109.243 376.211C109.52 375.91 109.731 375.556 109.865 375.17C109.998 374.784 110.051 374.374 110.019 373.967C109.975 373.403 109.771 372.862 109.43 372.41C109.089 371.958 108.627 371.613 108.096 371.414L90.4185 365.494C90.076 365.38 89.7131 365.342 89.3545 365.382C88.996 365.422 88.6502 365.538 88.341 365.724C85.9106 367.411 83.0028 368.273 80.0457 368.183C77.7427 368.02 75.532 367.212 73.6658 365.853C73.5017 365.718 73.3028 365.633 73.0922 365.608C72.8816 365.582 72.668 365.616 72.4763 365.707C72.2846 365.798 72.1228 365.942 72.0096 366.121C71.8964 366.301 71.8366 366.509 71.8371 366.721V375.366C71.8369 375.621 71.8871 375.873 71.9849 376.109C72.0826 376.345 72.2259 376.559 72.4065 376.739C72.5872 376.919 72.8017 377.062 73.0376 377.159C73.2736 377.256 73.5264 377.305 73.7815 377.304L107.071 377.17Z" fill="#C1D8ED"/>
    <path d="M174.873 377.169C175.281 377.167 175.685 377.081 176.059 376.916C176.433 376.751 176.768 376.511 177.045 376.21C177.322 375.91 177.533 375.555 177.667 375.169C177.8 374.783 177.853 374.374 177.821 373.967C177.777 373.402 177.573 372.862 177.232 372.41C176.891 371.958 176.428 371.612 175.898 371.414L158.218 365.493C157.875 365.38 157.512 365.342 157.154 365.382C156.795 365.421 156.449 365.538 156.14 365.724C153.709 367.411 150.802 368.273 147.845 368.183C145.542 368.02 143.331 367.212 141.464 365.853C141.3 365.718 141.102 365.633 140.891 365.607C140.68 365.581 140.467 365.616 140.275 365.707C140.083 365.798 139.922 365.942 139.809 366.121C139.695 366.301 139.636 366.509 139.637 366.721V375.366C139.636 375.621 139.687 375.873 139.785 376.109C139.882 376.344 140.026 376.558 140.206 376.738C140.387 376.918 140.602 377.061 140.838 377.158C141.074 377.254 141.327 377.304 141.582 377.303L174.873 377.169Z" fill="#C1D8ED"/>
    <path d="M62.3157 154.514C62.3157 154.514 54.0985 191.309 54.0985 222.253C54.0985 253.197 44.6631 301.126 44.6631 301.126C44.6631 301.126 71.4031 296.8 89.5432 301.126C120.799 308.575 148.823 292.348 148.823 292.348L117.346 157.914L62.3157 154.514Z" fill="#262626"/>
    <path d="M45.4212 179.557C45.4212 181.712 46.559 188.918 44.729 189.433C43.6309 189.742 42.3347 184.37 42.3347 184.37" fill="#E98862"/>
    <path d="M36.7786 178.425C36.7786 178.425 30.8009 192.973 37.6192 201.331C37.7931 201.543 38.027 201.699 38.2905 201.776C38.554 201.854 38.8348 201.85 39.0962 201.766C39.3575 201.681 39.5874 201.52 39.7557 201.303C39.924 201.086 40.0229 200.823 40.0395 200.549C40.3708 194.914 41.5079 183.335 45.223 184.691V175.603" fill="#E98862"/>
    <path d="M118.008 116.276C117.736 118.998 117.538 121.672 117.509 124.227C117.231 147.711 123.572 152.135 120.448 159.314C117.41 166.276 57.8606 169.171 57.0649 156.915C56.5586 149.12 63.4304 142.311 63.4304 127.119C63.3726 124.232 62.991 121.36 62.2926 118.558L55.5871 136.789L49.0047 181.127L33.4028 178.812L40.1046 133.669C40.185 133.136 40.32 132.613 40.5075 132.107L57.1105 86.963L57.2103 86.9999C57.9319 84.7773 59.1773 82.7608 60.8415 81.1203C64.1465 77.8155 69.8689 75.6768 76.8391 75.6768C87.2148 75.6768 101.386 75.6992 104.29 75.8214C112.782 76.183 116.945 79.8436 118.774 85.3052C118.774 85.3081 119.714 96.0042 118.008 116.276Z" fill="#367CFF"/>
    <path d="M178.645 109.783C178.645 109.783 188.944 107.029 190.435 105.081C191.926 103.134 188.402 96.4923 188.402 96.4923C188.402 96.4923 198.713 92.3811 197.739 90.7124C196.589 88.7422 183.7 95.638 183.7 95.638C183.7 95.638 186.521 92.3666 185.163 91.4827C184.605 91.1211 183.871 91.503 181.763 93.7698C179.364 96.3527 175.224 100.01 175.224 100.01L178.645 109.783Z" fill="#E98862"/>
    <path d="M135.874 140.16C134.471 140.159 133.094 139.784 131.883 139.074C130.673 138.364 129.674 137.344 128.989 136.12L102.865 89.3621L116.634 81.6699L137.348 120.915L174.098 98.1943L181.863 110.915C181.863 110.915 152.846 130.872 143.616 136.382C141.671 137.544 138.112 140.16 135.874 140.16Z" fill="#367CFF"/>
    <path d="M594.644 183.786C627.797 183.786 654.673 156.913 654.673 123.763C654.673 90.6124 627.797 63.7388 594.644 63.7388C561.491 63.7388 534.616 90.6124 534.616 123.763C534.616 156.913 561.491 183.786 594.644 183.786Z" fill="#C1D8ED"/>
    <path d="M584.351 156.535C583.1 156.535 581.896 156.056 580.986 155.198L558.184 133.683C557.701 133.245 557.31 132.716 557.034 132.125C556.758 131.534 556.602 130.894 556.577 130.242C556.551 129.591 556.656 128.94 556.885 128.33C557.113 127.719 557.462 127.16 557.909 126.686C558.357 126.211 558.895 125.831 559.491 125.567C560.087 125.303 560.73 125.161 561.382 125.148C562.034 125.136 562.682 125.253 563.288 125.495C563.894 125.736 564.446 126.095 564.912 126.552L584.08 144.635L624.11 100.528C624.983 99.5655 626.204 98.9892 627.503 98.9262C628.801 98.8632 630.072 99.3186 631.035 100.192C631.997 101.066 632.574 102.286 632.637 103.585C632.7 104.883 632.244 106.154 631.371 107.117L587.982 154.926C587.544 155.409 587.014 155.799 586.423 156.075C585.833 156.35 585.193 156.505 584.542 156.531C584.477 156.533 584.414 156.535 584.351 156.535Z" fill="white"/>
    <path d="M706.453 371.295C706.453 371.295 706.401 355.565 706.401 354.172H721.592C721.592 355.56 721.643 371.245 721.643 371.245L706.453 371.295Z" fill="#E98862"/>
    <path d="M687.986 377.169C687.578 377.167 687.174 377.081 686.8 376.916C686.427 376.751 686.091 376.511 685.814 376.21C685.538 375.91 685.326 375.555 685.192 375.169C685.059 374.783 685.006 374.374 685.038 373.967C685.082 373.402 685.286 372.862 685.627 372.41C685.968 371.958 686.431 371.612 686.961 371.414L704.641 365.493C704.984 365.38 705.347 365.342 705.706 365.382C706.064 365.421 706.41 365.538 706.72 365.724C709.15 367.411 712.057 368.273 715.014 368.183C717.317 368.02 719.528 367.212 721.395 365.853C721.559 365.718 721.758 365.633 721.968 365.607C722.179 365.581 722.392 365.616 722.584 365.707C722.776 365.798 722.938 365.942 723.051 366.121C723.164 366.301 723.223 366.509 723.223 366.721V375.366C723.223 375.621 723.172 375.873 723.075 376.109C722.977 376.344 722.833 376.558 722.653 376.738C722.472 376.918 722.257 377.061 722.021 377.158C721.786 377.254 721.533 377.304 721.278 377.303L687.986 377.169Z" fill="#C1D8ED"/>
    <path d="M645.926 369.476C644.324 356.01 644.324 354.625 644.324 354.169H659.515C659.515 354.124 659.515 354.065 659.515 353.992C659.568 355.117 660.335 361.974 661.013 367.683L645.926 369.476Z" fill="#E98862"/>
    <path d="M698.889 366.077L725.558 363.824C722.308 314.123 712.257 153.497 712.257 153.497L657.227 156.897L656.661 160.752L656.468 160.695C650.016 194.896 647.27 232.671 642.039 267.115C641.671 299.013 641.57 332.423 640.322 364.233L667.086 364.689C667 333.64 667.772 301.151 668.685 270.01C673.251 245.175 676.826 219.184 682.078 194.106C686.662 245.751 694.052 316.743 698.889 366.077Z" fill="#262626"/>
    <path d="M627.418 377.169C627.01 377.167 626.606 377.081 626.232 376.916C625.858 376.751 625.523 376.511 625.246 376.21C624.969 375.91 624.758 375.556 624.624 375.169C624.49 374.783 624.438 374.374 624.47 373.967C624.514 373.402 624.718 372.862 625.059 372.41C625.399 371.958 625.862 371.612 626.392 371.414L644.073 365.493C644.416 365.38 644.779 365.342 645.137 365.382C645.496 365.421 645.841 365.538 646.151 365.724C648.581 367.411 651.489 368.273 654.446 368.183C656.749 368.02 658.96 367.212 660.826 365.853C660.99 365.718 661.189 365.633 661.4 365.607C661.61 365.582 661.824 365.616 662.015 365.707C662.207 365.798 662.369 365.942 662.482 366.121C662.595 366.301 662.655 366.509 662.655 366.721V375.366C662.655 375.621 662.604 375.873 662.506 376.109C662.409 376.344 662.265 376.558 662.084 376.738C661.904 376.918 661.689 377.06 661.453 377.157C661.217 377.254 660.965 377.304 660.71 377.303L627.418 377.169Z" fill="#C1D8ED"/>
    <path d="M689.907 65.7849C689.897 65.7126 689.895 65.6402 689.893 65.5679C689.856 64.2522 689.867 62.8266 689.953 61.2614L678.345 59.4395C678.599 61.8709 678.642 64.3197 678.472 66.7584C678.44 67.1784 678.402 67.6064 678.356 68.0423C677.957 71.5915 676.927 75.3475 674.488 77.3988L692.564 76.8925C691.366 74.9331 690.105 71.5314 689.907 65.7849Z" fill="#E98862"/>
    <path d="M696.343 55.1698C695.674 59.8119 693.276 64.2565 689.244 65.8637C684.457 67.771 680.877 67.9916 675.3 68.1485C667.69 68.3655 667.718 60.4202 667.279 52.4285C666.838 44.405 667.233 35.774 670.163 32.8917C676.009 27.1372 693.73 30.1771 696.136 39.4584C697.38 44.2582 696.98 50.7526 696.343 55.1698Z" fill="#E98862"/>
    <path d="M662.783 37.745C662.783 37.745 659.646 37.1367 660.412 34.0048C660.919 31.9283 663.573 32.3116 663.573 32.3116C663.573 32.3116 661.06 31.9239 660.999 29.7417C660.96 28.3675 661.951 26.0067 665.177 27.2485C668.961 28.7053 673.223 28.3848 676.451 27.7476C678.275 27.294 680.131 26.9785 682.002 26.8037H682.011C684.165 26.7057 686.322 26.9324 688.409 27.4764C694.256 29.0481 703.315 34.0186 701.646 45.8393C699.842 58.6148 692.254 64.4207 691.212 65.2236C689.25 66.736 676.944 67.3783 675.69 66.1928C673.809 64.4178 672.609 57.1032 672.622 44.3016C667.552 43.6449 664.075 43.4018 664.075 43.4018C664.075 43.4018 659.88 43.6774 659.797 40.6121C659.713 37.5468 662.783 37.745 662.783 37.745Z" fill="#0F1011"/>
    <path d="M669.207 53.8917C669.171 54.4769 669.251 55.0635 669.443 55.6176C669.635 56.1717 669.934 56.6824 670.325 57.1201C670.715 57.5579 671.188 57.9141 671.716 58.1682C672.245 58.4223 672.818 58.5693 673.404 58.6007C673.989 58.6321 674.575 58.5473 675.128 58.3512C675.681 58.1551 676.189 57.8515 676.624 57.458C677.059 57.0645 677.411 56.5888 677.661 56.0584C677.911 55.528 678.054 54.9533 678.081 54.3676C678.122 53.783 678.045 53.1962 677.855 52.6419C677.665 52.0877 677.365 51.5773 676.974 51.1412C676.582 50.7051 676.107 50.3521 675.577 50.1033C675.046 49.8545 674.471 49.715 673.885 49.693C670.713 49.6792 669.338 51.4448 669.207 53.8917Z" fill="#E98862"/>
    <path d="M733.12 185.905L724.478 187.036C724.478 189.191 723.34 196.398 725.171 196.913C725.867 197.108 726.641 195.023 727.116 193.47C728.936 196.536 729.616 203.885 729.859 208.029C729.876 208.303 729.975 208.566 730.143 208.783C730.312 209 730.541 209.161 730.803 209.246C731.064 209.33 731.345 209.334 731.608 209.256C731.872 209.179 732.106 209.023 732.28 208.811C739.098 200.455 733.12 185.905 733.12 185.905Z" fill="#E98862"/>
    <path d="M656.366 124.227C656.131 104.168 645.588 76.8512 669.586 75.8241C672.489 75.699 686.661 75.6794 697.036 75.6794C704.007 75.6794 709.729 77.8182 713.034 81.1229C724.427 92.5155 710.443 111.929 710.443 127.124C710.443 142.32 717.314 149.125 716.808 156.92C716.012 169.177 656.461 166.281 653.426 159.32C650.302 152.134 656.643 147.711 656.366 124.227Z" fill="#367CFF"/>
    <path d="M721.996 189.492L716.036 133.847L700.319 90.0014L715.166 84.6802L731.201 129.411C731.412 130 731.552 130.611 731.619 131.233L737.678 187.812L721.996 189.492Z" fill="#367CFF"/>
    <path d="M593.686 105.365C594.372 103.933 595.163 101.748 594.193 100.775C593.197 99.7794 591.534 102.145 590.514 103.874C588.177 102.885 585.561 102.059 584.74 102.88C583.149 104.471 581.249 109.832 582.192 112.378C583.135 114.925 592.536 115.387 592.536 115.387L595.647 105.869C594.976 105.776 594.318 105.607 593.686 105.365Z" fill="#E98862"/>
    <path d="M632.64 130.171C631.885 130.171 631.134 130.062 630.411 129.848L590.909 118.203L595.367 103.076L629.933 113.263L657.926 80.0857L669.981 90.2559L638.668 127.367C637.928 128.244 637.005 128.95 635.964 129.435C634.923 129.919 633.788 130.17 632.64 130.171Z" fill="#367CFF"/>
    <path d="M196.742 99.9886L199.366 95.9187C201.447 97.5099 203.266 98.3258 205.202 98.3258C207.521 98.3258 208.541 97.3638 208.541 95.5049C208.541 91.2946 197.739 91.3706 197.739 83.9865C197.739 79.2395 201.027 76.2162 206.213 76.2162C207.685 76.1949 209.145 76.4945 210.49 77.094C211.836 77.6935 213.034 78.5787 214.003 79.688L210.993 83.1359C209.505 81.7834 208.244 81.0709 206.535 81.0709C204.566 81.0709 203.497 81.8665 203.497 83.703C203.497 87.6051 214.3 87.2645 214.3 95.0862C214.3 99.7876 211.189 103.187 205.2 103.187C202.099 103.115 199.115 101.987 196.742 99.9886ZM203.939 72.2019H207.931V78.0953H203.939V72.2019ZM203.939 100.723H207.931V107.19H203.939V100.723Z" fill="white"/>
</svg>
