<svg width="414" height="264" viewBox="0 0 414 264" fill="none" xmlns="http://www.w3.org/2000/svg">
<g clip-path="url(#clip0_258_3)">
<g opacity="0.35">
<path fill-rule="evenodd" clip-rule="evenodd" d="M427.352 96.7732C413.004 82.3934 389.705 82.523 375.517 97.0618L368.357 104.399C350.845 122.343 321.954 122.095 304.753 103.853L299.245 98.012C299.245 98.0119 299.245 98.012 299.245 98.012C285.139 83.0535 261.497 82.7189 246.976 97.2723L240.161 104.102C222.183 122.119 192.767 121.217 175.922 102.133C161.353 85.6281 135.634 85.7081 121.167 102.304C119.778 103.898 117.359 104.063 115.765 102.674C114.172 101.284 114.006 98.8661 115.395 97.2722C132.901 77.1904 164.033 77.0933 181.663 97.066C195.583 112.837 219.885 113.582 234.741 98.6936L241.556 91.8639C259.129 74.2519 287.746 74.6574 304.815 92.7587L310.323 98.6001C310.323 98.6 310.323 98.6001 310.323 98.6001C324.539 113.674 348.406 113.879 362.877 99.0511L370.037 91.714C387.206 74.1202 415.409 73.9631 432.773 91.3649C434.266 92.8617 434.263 95.2857 432.767 96.7792C431.27 98.2727 428.846 98.27 427.352 96.7732Z" fill="url(#paint0_linear_258_3)"/>
<path fill-rule="evenodd" clip-rule="evenodd" d="M427.352 163.461C413.004 149.081 389.705 149.21 375.517 163.749L368.357 171.086C350.845 189.031 321.954 188.782 304.753 170.541L299.245 164.699C299.245 164.699 299.245 164.7 299.245 164.699C285.139 149.741 261.497 149.406 246.976 163.96L240.161 170.79C222.183 188.807 192.767 187.905 175.922 168.821C161.353 152.316 135.634 152.396 121.167 168.991C119.778 170.585 117.359 170.751 115.765 169.361C114.172 167.972 114.006 165.554 115.395 163.96C132.901 143.878 164.033 143.781 181.663 163.754C195.583 179.525 219.885 180.269 234.741 165.381L241.556 158.551C259.129 140.939 287.746 141.345 304.815 159.446L310.323 165.288C310.323 165.287 310.323 165.288 310.323 165.288C324.539 180.362 348.406 180.567 362.877 165.739L370.037 158.401C387.206 140.808 415.409 140.651 432.773 158.052C434.266 159.549 434.263 161.973 432.767 163.467C431.27 164.96 428.846 164.957 427.352 163.461Z" fill="url(#paint1_linear_258_3)"/>
<path fill-rule="evenodd" clip-rule="evenodd" d="M427.352 230.836C413.004 216.456 389.705 216.585 375.517 231.124L368.357 238.461C350.845 256.406 321.954 256.157 304.753 237.916L299.245 232.074C299.245 232.074 299.245 232.075 299.245 232.074C285.139 217.116 261.497 216.781 246.976 231.335L240.161 238.164C222.183 256.182 192.767 255.28 175.922 236.196C161.353 219.691 135.634 219.771 121.167 236.366C119.778 237.96 117.359 238.126 115.765 236.736C114.172 235.347 114.006 232.929 115.395 231.335C132.901 211.253 164.033 211.156 181.663 231.129C195.583 246.9 219.885 247.644 234.741 232.756L241.556 225.926C259.129 208.314 287.746 208.72 304.815 226.821L310.323 232.663C310.323 232.663 310.323 232.663 310.323 232.663C324.539 247.737 348.406 247.942 362.877 233.114L370.037 225.776C387.206 208.183 415.409 208.026 432.773 225.427C434.266 226.924 434.263 229.348 432.767 230.842C431.27 232.335 428.846 232.332 427.352 230.836Z" fill="url(#paint2_linear_258_3)"/>
</g>
<path fill-rule="evenodd" clip-rule="evenodd" d="M183.464 159.738C183.709 161.816 182.241 163.702 180.175 163.98L180.112 163.988C173.202 165.07 172.186 171.985 172.04 174.317C172.239 176.382 170.75 178.238 168.679 178.482C166.58 178.73 164.677 177.23 164.429 175.13C164.228 173.428 165.178 171.854 166.664 171.188L166.646 171.175C175.809 168.15 175.985 162.206 175.864 160.653L175.862 160.636C175.855 160.574 175.849 160.512 175.845 160.45C175.831 160.335 175.819 160.274 175.819 160.274L175.837 160.289C175.782 158.331 177.231 156.62 179.214 156.386C181.313 156.138 183.216 157.639 183.464 159.738Z" fill="#FFD666"/>
<path fill-rule="evenodd" clip-rule="evenodd" d="M193.229 183.751C192.471 184.519 191.233 184.528 190.464 183.772C190.124 183.438 189.933 183.01 189.891 182.57L189.891 182.57C188.789 178.154 185.937 177.756 185.165 177.731C185.162 177.731 185.159 177.731 185.156 177.731C185.123 177.731 185.091 177.731 185.059 177.73C185.001 177.73 184.969 177.733 184.969 177.733L184.978 177.725C183.981 177.643 183.194 176.813 183.187 175.795C183.179 174.718 184.048 173.838 185.127 173.829C186.196 173.821 187.071 174.67 187.096 175.733L187.096 175.765C187.257 179.324 190.705 180.227 191.883 180.432C192.363 180.443 192.84 180.629 193.209 180.992C193.978 181.748 193.987 182.983 193.229 183.751Z" fill="#ADC6FF"/>
<path fill-rule="evenodd" clip-rule="evenodd" d="M209.324 42.9777H84.6562V31.7833C84.6562 29.355 86.6209 27.3862 89.0441 27.3862H204.936C207.36 27.3862 209.324 29.355 209.324 31.7833V42.9777Z" fill="#FFE9AD"/>
<path fill-rule="evenodd" clip-rule="evenodd" d="M204.936 150.762H89.0441C86.6209 150.762 84.6562 148.793 84.6562 146.365V41.6665H209.324V146.365C209.324 148.793 207.36 150.762 204.936 150.762Z" fill="#FFE9AD"/>
<path fill-rule="evenodd" clip-rule="evenodd" d="M94.7875 34.6421C94.7875 36.1661 93.5545 37.4017 92.0336 37.4017C90.5128 37.4017 89.28 36.1661 89.28 34.6421C89.28 33.1182 90.5128 31.8826 92.0336 31.8826C93.5545 31.8826 94.7875 33.1182 94.7875 34.6421Z" fill="#FF7946"/>
<path fill-rule="evenodd" clip-rule="evenodd" d="M105.071 34.6421C105.071 36.1661 103.838 37.4017 102.318 37.4017C100.797 37.4017 99.564 36.1661 99.564 34.6421C99.564 33.1182 100.797 31.8826 102.318 31.8826C103.838 31.8826 105.071 33.1182 105.071 34.6421Z" fill="#FAAD14"/>
<path fill-rule="evenodd" clip-rule="evenodd" d="M115.355 34.6421C115.355 36.1661 114.123 37.4017 112.602 37.4017C111.081 37.4017 109.848 36.1661 109.848 34.6421C109.848 33.1182 111.081 31.8826 112.602 31.8826C114.123 31.8826 115.355 33.1182 115.355 34.6421Z" fill="#7CB305"/>
<path fill-rule="evenodd" clip-rule="evenodd" d="M98.1304 135.922C97.3741 135.922 96.7612 135.308 96.7612 134.551V55.0724C96.7612 54.3153 97.3741 53.7014 98.1304 53.7014H197.212C197.968 53.7014 198.581 54.3153 198.581 55.0724V134.551C198.581 135.308 197.968 135.922 197.212 135.922H98.1304Z" fill="white"/>
<path d="M131.172 88.3447C131.742 87.8568 132.605 87.9662 133.037 88.5728L133.059 88.6052L152.998 118.491L168.42 107.654C168.603 107.525 168.816 107.447 169.038 107.427L169.086 107.424L189.464 106.361C190.166 106.324 190.764 106.863 190.801 107.566C190.837 108.255 190.317 108.845 189.633 108.901L189.596 108.903L169.584 109.947L153.394 121.324C152.82 121.727 152.03 121.589 151.626 121.021L151.604 120.989L131.738 91.212L108.52 111.09C107.996 111.539 107.212 111.487 106.751 110.98L106.725 110.951C106.277 110.427 106.328 109.643 106.835 109.182L106.865 109.156L131.172 88.3447Z" fill="#FF7946"/>
<path d="M186.446 70.3085C186.837 69.7246 187.628 69.5687 188.212 69.9603C188.785 70.3447 188.946 71.114 188.581 71.6945L188.56 71.7265L170.43 98.7604C169.976 99.4384 169.013 99.517 168.453 98.9316L168.426 98.9023L147.704 75.8462L133.34 85.5381C133.137 85.6748 132.9 85.7501 132.656 85.7555L132.607 85.7556L107.672 85.348C106.969 85.3365 106.408 84.7574 106.419 84.0544C106.431 83.3638 106.99 82.8106 107.676 82.8023L107.713 82.8024L132.248 83.2033L147.199 73.1162C147.714 72.7683 148.403 72.8447 148.83 73.2915L148.857 73.3205L169.226 95.984L186.446 70.3085Z" fill="#FAAD14"/>
<path d="M155.038 87.6217C155.356 87.3439 155.789 87.2421 156.196 87.3478L156.238 87.3595L169.513 91.2971L189.079 88.1796C189.761 88.0709 190.403 88.5257 190.53 89.2001L190.537 89.2365C190.645 89.9186 190.19 90.5604 189.516 90.6876L189.48 90.6939L169.629 93.8569C169.458 93.8841 169.284 93.8762 169.116 93.8339L169.066 93.8202L156.186 89.9997L133.806 109.574C133.393 109.934 132.798 109.99 132.327 109.716L132.292 109.695L105.554 92.9651C104.958 92.5922 104.778 91.8068 105.151 91.2108C105.517 90.6256 106.28 90.4406 106.872 90.787L106.905 90.8068L132.841 107.035L155.038 87.6217Z" fill="#597EF7"/>
<path fill-rule="evenodd" clip-rule="evenodd" d="M132.081 64.1063H107C105.973 64.1063 105.133 63.2645 105.133 62.2355C105.133 61.2064 105.973 60.3647 107 60.3647H132.081C133.108 60.3647 133.948 61.2064 133.948 62.2355C133.948 63.2645 133.108 64.1063 132.081 64.1063Z" fill="#FFE9AD"/>
<path fill-rule="evenodd" clip-rule="evenodd" d="M117.58 72.9297H108.245C107.214 72.9297 106.378 72.092 106.378 71.0589C106.378 70.0256 107.214 69.1881 108.245 69.1881H117.58C118.611 69.1881 119.447 70.0256 119.447 71.0589C119.447 72.092 118.611 72.9297 117.58 72.9297Z" fill="#FFE9AD"/>
<path d="M185.211 113.639C180.839 113.639 177.305 117.231 177.305 121.65C177.305 126.068 180.839 129.66 185.211 129.66C189.582 129.66 193.116 126.068 193.116 121.65C193.116 117.231 189.582 113.639 185.211 113.639ZM185.211 116.652C187.907 116.652 190.103 118.884 190.103 121.65C190.103 124.415 187.907 126.647 185.211 126.647C182.514 126.647 180.318 124.415 180.318 121.65C180.318 118.884 182.514 116.652 185.211 116.652Z" fill="#FFE9AD"/>
<path d="M190.468 117.424C191.233 117.097 192.119 117.452 192.446 118.217C192.886 119.245 193.116 120.364 193.116 121.514C193.116 122.455 192.962 123.376 192.664 124.245C192.394 125.032 191.537 125.452 190.75 125.182C189.975 124.916 189.557 124.082 189.801 123.306L189.813 123.267C190.004 122.712 190.103 122.122 190.103 121.514C190.103 120.803 189.968 120.116 189.71 119.484L189.676 119.402C189.348 118.637 189.703 117.752 190.468 117.424Z" fill="#597EF7"/>
<g clip-path="url(#clip1_258_3)">
<path d="M94.1971 211.648C103.537 217.041 115.383 214.009 120.656 204.876C125.929 195.743 122.632 183.968 113.291 178.576C103.951 173.183 92.105 176.215 86.8323 185.348C81.5595 194.481 84.8569 206.256 94.1971 211.648Z" fill="#FFD666"/>
<path d="M96.1166 208.095C103.537 212.379 112.948 209.97 117.136 202.715C121.325 195.46 118.706 186.105 111.286 181.821C103.866 177.537 94.4546 179.946 90.2659 187.201C86.0771 194.456 88.6965 203.811 96.1166 208.095Z" fill="#FFC53D"/>
<path d="M105.879 185.37C105.992 185.435 106.06 185.557 106.054 185.685L105.803 191.59L110.791 188.419C110.896 188.353 111.029 188.349 111.14 188.407L111.151 188.414L112.877 189.41C112.982 189.47 113.048 189.579 113.052 189.698C113.057 189.816 112.998 189.927 112.899 189.991L108.195 192.982L110.189 194.133C110.391 194.25 110.462 194.504 110.348 194.701L109.397 196.349C109.283 196.546 109.027 196.612 108.825 196.495L105.586 194.625L104.243 196.95L107.483 198.821C107.685 198.937 107.756 199.192 107.642 199.389L106.691 201.037C106.577 201.234 106.321 201.3 106.119 201.183L102.879 199.313L100.332 203.725C100.238 203.887 100.027 203.941 99.8601 203.844L98.0481 202.798C97.8813 202.702 97.822 202.493 97.9155 202.33L100.463 197.918L97.2234 196.047C97.0217 195.931 96.9504 195.676 97.0643 195.479L98.0157 193.831C98.1296 193.634 98.3855 193.568 98.5873 193.685L101.827 195.555L103.17 193.23L99.9299 191.36C99.7281 191.243 99.6569 190.989 99.7708 190.791L100.722 189.144C100.836 188.946 101.092 188.881 101.294 188.997L103.402 190.214L103.64 184.645C103.645 184.527 103.712 184.421 103.817 184.366C103.921 184.31 104.049 184.313 104.153 184.373L105.879 185.37Z" fill="white"/>
</g>
<g clip-path="url(#clip2_258_3)">
<path fill-rule="evenodd" clip-rule="evenodd" d="M364.753 208.823C366.887 208.252 369.079 209.499 369.683 211.615L369.701 211.68C371.879 218.732 379.255 218.745 381.713 218.543C383.84 218.022 386.004 219.295 386.574 221.422C387.152 223.577 385.873 225.792 383.718 226.369C381.97 226.837 380.182 226.084 379.261 224.633L379.251 224.654C374.7 215.542 368.466 216.261 366.862 216.622L366.844 216.627C366.78 216.644 366.716 216.66 366.652 216.673C366.535 216.705 366.473 216.727 366.473 216.727L366.486 216.706C364.449 217.06 362.442 215.806 361.897 213.771C361.32 211.616 362.598 209.401 364.753 208.823Z" fill="#FFD666"/>
<path fill-rule="evenodd" clip-rule="evenodd" d="M388.352 194.981C389.269 195.656 389.467 196.947 388.794 197.865C388.496 198.271 388.078 198.536 387.625 198.647L387.625 198.646C383.18 200.467 383.197 203.507 383.288 204.317C383.289 204.32 383.289 204.323 383.29 204.327C383.295 204.36 383.299 204.394 383.303 204.427C383.312 204.488 383.319 204.521 383.319 204.521L383.31 204.513C383.376 205.567 382.628 206.515 381.567 206.677C380.442 206.849 379.391 206.075 379.219 204.948C379.048 203.833 379.802 202.791 380.908 202.604L380.942 202.598C384.635 201.89 385.054 198.151 385.09 196.89C385.028 196.387 385.151 195.861 385.474 195.421C386.147 194.503 387.435 194.306 388.352 194.981Z" fill="#ADC6FF"/>
</g>
<g clip-path="url(#clip3_258_3)">
<path d="M36.2266 129.838C46.2445 135.622 59.0544 132.19 64.8383 122.172C70.6221 112.154 67.1897 99.3439 57.1718 93.56C47.1539 87.7761 34.344 91.2085 28.5601 101.226C22.7763 111.244 26.2087 124.054 36.2266 129.838Z" fill="#FFD666"/>
<path d="M38.4474 125.992C46.341 130.549 56.4345 127.844 60.9918 119.951C65.5492 112.057 62.8447 101.964 54.9511 97.4064C47.0575 92.849 36.964 95.5536 32.4066 103.447C27.8492 111.341 30.5538 121.434 38.4474 125.992Z" fill="#FFC53D"/>
<path fill-rule="evenodd" clip-rule="evenodd" d="M49.4083 104.613L50.3052 103.059C50.3878 102.916 50.3388 102.733 50.1958 102.651L48.6469 101.757C48.5039 101.674 48.3211 101.723 48.2385 101.866L47.3416 103.42L45.5481 102.384C45.4126 102.306 45.2349 102.36 45.1512 102.505L38.1486 114.634C38.0649 114.779 38.1069 114.96 38.2424 115.038L40.0359 116.073L38.9716 117.917C38.889 118.06 38.938 118.243 39.081 118.325L40.6299 119.22C40.7729 119.302 40.9557 119.253 41.0383 119.11L42.1026 117.267L43.1427 117.867L42.0784 119.711C41.9959 119.854 42.0449 120.036 42.1879 120.119L43.7364 121.013C43.8794 121.096 44.0623 121.047 44.1448 120.904L45.2494 118.99C46.064 119.32 46.8118 119.452 47.4928 119.386C48.6513 119.253 49.5982 118.57 50.3349 117.293C50.8261 116.443 51.0259 115.637 50.9254 114.894C50.825 114.15 50.4231 113.469 49.7367 112.86C50.466 112.974 51.1186 112.877 51.7152 112.608C52.3327 112.303 52.8462 111.796 53.2555 111.087C53.8183 110.113 53.9436 109.169 53.6419 108.239C53.4336 107.584 53.0402 107.01 52.459 106.503L53.4117 104.853C53.4943 104.71 53.4453 104.527 53.3023 104.444L51.7537 103.55C51.6108 103.468 51.4279 103.517 51.3454 103.66L50.4485 105.213L49.4083 104.613ZM47.9819 110.736L44.301 108.611L46.3937 104.987L50.1073 107.131C50.8924 107.584 51.4026 108.06 51.5954 108.557C51.798 109.037 51.7224 109.584 51.3686 110.197C50.9951 110.844 50.54 111.216 50.0032 111.315C49.477 111.395 48.7997 111.209 47.9819 110.736ZM44.813 116.07L41.1993 113.984L42.9931 110.877L46.6521 112.989C47.4382 113.443 47.9577 113.904 48.1893 114.377C48.4208 114.85 48.3773 115.378 48.0525 115.94C47.7355 116.489 47.2465 116.743 46.6158 116.718C46.1145 116.679 45.5084 116.471 44.813 116.07Z" fill="white"/>
</g>
<path fill-rule="evenodd" clip-rule="evenodd" d="M295.285 50.6591C295.285 50.6591 258.434 55.7006 257.603 76.7303C257.176 87.5461 267.385 99.5961 262.188 102.754C241.881 115.101 263.442 121.028 250.505 131.042C231.262 145.938 242.039 172.604 261.984 171.428C282.644 170.211 271.98 199.2 307.705 191.846C327.84 187.702 333.795 183.452 348.191 176.772C362.586 170.092 372.345 133.215 355.39 114.473C344.857 102.616 334.445 103.453 328.951 84.0648C323.456 64.6775 317.978 52.7361 308.424 54.0442C305.1 48.979 295.285 50.6591 295.285 50.6591Z" fill="black"/>
<path fill-rule="evenodd" clip-rule="evenodd" d="M272.567 95.6093C272.479 95.2025 271.915 95.1621 271.769 95.5536C270.488 99.0125 267.386 108.361 271.068 108.923C275.222 109.557 273.372 99.3343 272.567 95.6093Z" fill="white"/>
<path fill-rule="evenodd" clip-rule="evenodd" d="M305.658 125.234C302.142 108.766 301.665 102.202 301.665 102.202L281.548 110.65L282.72 128.45C283.151 135.003 288.915 139.897 295.445 139.255C302.348 138.575 307.108 132.025 305.658 125.234Z" fill="#F4B784"/>
<path fill-rule="evenodd" clip-rule="evenodd" d="M295.829 72.976C295.829 72.976 293.723 66.3129 289.078 69.23C285.758 71.3154 286.712 69.5044 286.089 67.7046C283.777 61.0221 281.626 76.2747 271.085 79.072C270.458 87.2563 268.83 116.876 286.565 116.222C292.293 116.012 301.973 113.199 306.06 103.412C308.53 97.4981 307.066 91.214 304.72 89.8599C296.992 85.3979 297.369 81.2577 295.829 72.976Z" fill="#FFC999"/>
<path d="M280.819 79.4494C280.561 79.5103 280.391 79.7493 280.409 80.0059L280.422 80.0918L281.407 84.2774L281.334 85.0196L281.267 85.6326C281.205 86.1668 281.131 86.7593 281.042 87.4076C280.686 90.004 280.178 92.9525 279.491 96.1965C279.439 96.4443 279.568 96.695 279.799 96.7967C281.005 97.3251 282.236 97.6618 283.435 97.845C284.106 97.9474 284.658 97.9879 285.053 97.9924L285.212 97.9921C285.507 97.9853 285.74 97.7408 285.734 97.4458C285.727 97.1803 285.529 96.9645 285.274 96.9289L285.188 96.9239H285.059L284.772 96.9142C284.456 96.8977 284.059 96.8594 283.596 96.7887C282.762 96.6613 281.911 96.4538 281.068 96.1519L280.627 95.9838L280.692 95.6688C281.255 92.9407 281.69 90.4277 282.014 88.1639L282.099 87.5527C282.207 86.7652 282.294 86.0581 282.363 85.4357L282.443 84.6671L282.477 84.2773L282.464 84.114L281.461 79.847C281.4 79.5885 281.162 79.4185 280.905 79.4363L280.819 79.4494Z" fill="#DD936F"/>
<path d="M292.154 97.9867C292.013 97.6139 291.597 97.4257 291.225 97.5665L290.744 97.7369C290.657 97.7668 290.56 97.7992 290.455 97.834C289.837 98.0379 289.155 98.242 288.432 98.4325C286.916 98.8316 285.425 99.116 284.039 99.2358C282.927 99.332 281.921 99.3177 281.048 99.1808C280.655 99.1192 280.286 99.3883 280.224 99.7821C280.163 100.176 280.431 100.545 280.825 100.607C281.823 100.763 282.943 100.779 284.163 100.674C285.64 100.546 287.209 100.247 288.799 99.8283C289.552 99.6299 290.261 99.4174 290.906 99.2046L291.465 99.0144C291.577 98.9749 291.667 98.942 291.734 98.9167C292.106 98.7759 292.294 98.3596 292.154 97.9867Z" fill="#C44343"/>
<path d="M281.199 78.6229C277.219 77.1678 274.191 76.8629 272.092 77.2288C271.794 77.2809 271.584 77.3361 271.462 77.3791C271.1 77.507 270.91 77.9048 271.037 78.2675C271.155 78.6001 271.498 78.7878 271.834 78.7183L272.003 78.6699C272.074 78.6514 272.183 78.627 272.331 78.6012C274.184 78.2781 276.966 78.5583 280.722 79.9314C281.083 80.0634 281.482 79.8775 281.614 79.5161C281.746 79.1548 281.56 78.7549 281.199 78.6229Z" fill="#253368"/>
<path d="M296.51 77.4285C294.379 77.2302 292.086 77.2528 289.918 77.6498C288.826 77.8497 287.816 78.1396 286.902 78.5303C286.549 78.6815 286.385 79.0908 286.536 79.4445C286.687 79.7983 287.096 79.9624 287.449 79.8112C288.261 79.464 289.173 79.2023 290.168 79.0201C292.193 78.6495 294.366 78.6281 296.381 78.8156L296.833 78.8618C297.053 78.8865 297.219 78.9089 297.326 78.9256C297.706 78.9851 298.061 78.7252 298.121 78.3451C298.18 77.9651 297.921 77.6088 297.541 77.5493L297.26 77.5105L296.907 77.4687C296.782 77.455 296.649 77.4415 296.51 77.4285Z" fill="#253368"/>
<path d="M285.17 103.435C284.876 103.428 284.631 103.661 284.624 103.956C284.617 104.221 284.805 104.446 285.058 104.494L285.144 104.503L287.071 104.55C287.366 104.558 287.611 104.324 287.618 104.029C287.625 103.764 287.436 103.539 287.184 103.491L287.098 103.482L285.17 103.435Z" fill="#DD936F"/>
<path fill-rule="evenodd" clip-rule="evenodd" d="M316.715 94.4909C318.452 87.6217 311.79 87.7903 311.79 87.7903C311.79 87.7903 311.397 94.6874 309.356 100.789C316.025 100.841 316.715 94.4909 316.715 94.4909Z" fill="#FFC999"/>
<path fill-rule="evenodd" clip-rule="evenodd" d="M312.778 99.2028C312.69 98.7946 312.127 98.7556 311.98 99.1471C310.699 102.606 307.597 111.954 311.279 112.516C315.433 113.15 313.584 102.928 312.778 99.2028Z" fill="white"/>
<path d="M278.726 86.6116C278.342 86.6204 278.037 86.9393 278.046 87.3239C278.076 88.6241 277.385 89.6235 276.63 89.6402C275.874 89.6578 275.138 88.6913 275.108 87.391C275.099 87.0064 274.781 86.7018 274.397 86.7105C274.012 86.7193 273.708 87.0382 273.717 87.4228C273.762 89.4141 275.025 91.071 276.661 91.0329C278.298 90.9966 279.483 89.2833 279.437 87.2921C279.429 86.9075 279.11 86.6028 278.726 86.6116Z" fill="#253368"/>
<path d="M294.431 86.7946C294.047 86.8034 293.743 87.1223 293.752 87.5069C293.781 88.8068 293.09 89.8056 292.335 89.8232C291.58 89.8408 290.843 88.8743 290.814 87.574C290.805 87.1894 290.486 86.8847 290.102 86.8935C289.718 86.9023 289.413 87.2212 289.422 87.6058C289.468 89.5971 290.73 91.254 292.368 91.2158C294.003 91.1777 295.188 89.4657 295.143 87.4751C295.134 87.0905 294.815 86.7858 294.431 86.7946Z" fill="#253368"/>
<path fill-rule="evenodd" clip-rule="evenodd" d="M209.374 204.724C209.374 204.724 236.39 160.643 242.469 153.004C257.153 134.551 271.929 139.162 274.999 152.265C278.698 168.063 227.786 220.406 227.786 220.406C227.786 220.406 221.527 227.951 212.176 222.383C201.124 215.802 209.374 204.724 209.374 204.724Z" fill="#FFC999"/>
<path fill-rule="evenodd" clip-rule="evenodd" d="M226.99 174.52C229.836 170.547 250.004 131.847 265.822 141.913C279.224 150.442 276.086 164.099 253.753 191.259L226.99 174.52Z" fill="#FF7A46"/>
<path fill-rule="evenodd" clip-rule="evenodd" d="M176.446 138.956C192.201 185.32 194.722 197.373 202.35 211.634C215.016 235.315 233.853 223.319 228.913 209.222C225.812 200.377 215.677 184.614 208.334 170.162C197.98 149.793 189.793 135.233 189.793 135.233L176.446 138.956Z" fill="#FFC999"/>
<path d="M218.482 189.482C218.335 189.226 218.008 189.139 217.753 189.286C217.523 189.419 217.43 189.697 217.521 189.938L217.558 190.016L225.729 204.175C225.877 204.431 226.203 204.518 226.459 204.371C226.688 204.238 226.782 203.96 226.691 203.719L226.654 203.641L218.482 189.482Z" fill="#DD936F"/>
<path fill-rule="evenodd" clip-rule="evenodd" d="M190.064 135.827L180.744 109.404C180.744 109.404 166.898 88.3677 162.485 89.9961C158.423 92.0941 168.265 97.7402 170.532 103.789C166.536 103.758 168.72 109.565 168.72 109.565C168.72 109.565 165.545 109.651 166.705 114.422C163.877 116.352 166.585 121.739 166.585 121.739C166.585 121.739 173.42 135.948 180.583 145.259C180.583 145.259 191.973 152.959 190.064 135.827Z" fill="#FFC999"/>
<path fill-rule="evenodd" clip-rule="evenodd" d="M187.795 126.843C187.795 126.843 186.072 117.688 184.924 113.041C183.776 108.393 185.219 99.7772 181.939 102.246C179.732 103.905 180.454 108.93 180.775 112.649C181.095 116.367 175.648 125.578 180.514 131.404C183.803 135.339 188.608 135.578 187.795 126.843Z" fill="#FFC999"/>
<path d="M170.894 103.397C170.678 103.197 170.34 103.21 170.14 103.426C169.94 103.643 169.953 103.981 170.169 104.181L170.412 104.413C170.609 104.603 170.828 104.819 171.065 105.06C171.74 105.746 172.416 106.481 173.045 107.233C173.687 107.999 174.243 108.74 174.69 109.439C176.073 111.599 176.228 112.994 175.046 113.579C174.782 113.709 174.673 114.03 174.804 114.294C174.934 114.559 175.255 114.667 175.519 114.537C177.5 113.557 177.271 111.491 175.589 108.862C175.115 108.122 174.532 107.345 173.863 106.546C173.214 105.77 172.519 105.015 171.825 104.31L171.474 103.958L170.971 103.469C170.939 103.439 170.913 103.415 170.894 103.397Z" fill="#DD936F"/>
<path d="M168.664 109.422C168.5 109.667 168.566 109.999 168.811 110.163L169.06 110.335C169.262 110.477 169.487 110.639 169.73 110.819C170.423 111.333 171.116 111.886 171.761 112.455C172.512 113.117 173.147 113.758 173.628 114.356C174.696 115.683 174.862 116.56 174.147 117.064C173.765 117.334 173.301 117.381 172.737 117.219C172.132 117.047 171.456 116.647 170.763 116.087C170.415 115.806 170.086 115.505 169.787 115.203L169.463 114.862C169.445 114.842 169.429 114.824 169.416 114.809C169.223 114.586 168.886 114.563 168.663 114.756C168.441 114.949 168.417 115.287 168.61 115.51L168.736 115.649C168.813 115.733 168.912 115.837 169.03 115.955C169.355 116.284 169.712 116.612 170.093 116.919C170.888 117.56 171.678 118.028 172.444 118.247C173.297 118.49 174.091 118.411 174.762 117.938C176.152 116.957 175.861 115.429 174.46 113.686C173.936 113.035 173.26 112.353 172.467 111.653C171.797 111.062 171.081 110.491 170.365 109.96L170.003 109.695L169.405 109.276C169.16 109.111 168.829 109.177 168.664 109.422Z" fill="#DD936F"/>
<path d="M167.836 114.174C167.543 114.147 167.283 114.363 167.256 114.657C167.228 114.951 167.444 115.211 167.738 115.238C168.366 115.296 169.204 115.813 170.245 116.891C172.423 119.148 172.934 120.637 172.39 121.003C171.814 121.392 170.305 120.817 169.273 119.523C168.859 119.004 168.059 119.556 168.396 120.128C169.57 122.121 170.881 123.577 172.403 124.689L172.806 124.976C173.578 125.513 174.198 125.842 175.578 126.473L176.62 126.944C179.847 128.39 181.106 129.584 181.985 132.869C182.061 133.154 182.354 133.323 182.638 133.247C182.923 133.171 183.092 132.878 183.016 132.593C182.068 129.051 180.632 127.614 177.342 126.099L175.831 125.414C174.439 124.772 173.907 124.465 173.033 123.826C172.378 123.347 171.764 122.799 171.184 122.16L171.093 122.056L171.213 122.089C171.829 122.243 172.411 122.214 172.866 121.963L172.987 121.889C174.336 120.979 173.599 118.829 171.012 116.149C169.811 114.904 168.767 114.261 167.836 114.174Z" fill="#DD936F"/>
<path d="M180.385 107.466C180.12 107.461 179.896 107.65 179.85 107.903L179.841 107.99L179.708 114.995L179.572 115.275L179.468 115.499C179.248 115.984 179.029 116.523 178.824 117.106C178.203 118.876 177.845 120.655 177.887 122.333C177.925 123.848 178.294 125.205 179.048 126.352C179.21 126.598 179.541 126.667 179.787 126.504C180.033 126.342 180.101 126.011 179.939 125.764C179.303 124.798 178.987 123.634 178.954 122.306C178.915 120.776 179.249 119.118 179.831 117.46C180.025 116.909 180.232 116.398 180.44 115.941L180.601 115.595C180.647 115.501 180.683 115.429 180.709 115.38C180.736 115.331 180.754 115.278 180.764 115.223L180.772 115.14L180.908 108.01C180.914 107.715 180.679 107.471 180.385 107.466Z" fill="#DD936F"/>
<path fill-rule="evenodd" clip-rule="evenodd" d="M240.253 395.235C242.733 337.06 249.362 274.898 254.868 262.271C254.868 262.271 261.492 254.703 280.769 267.221C303.248 281.816 298.85 300.248 298.85 300.248L295.319 398.292C294.724 405.98 291.986 429.832 262.503 426.28C233.484 422.782 240.199 396.503 240.253 395.235Z" fill="#E4EBF7"/>
<path fill-rule="evenodd" clip-rule="evenodd" d="M310.934 227.826C299.82 231.444 271.185 231.732 267.713 230.543C264.243 229.353 266.855 222.729 266.855 222.729C251.537 188.391 251.753 188.907 250.722 181.681C249.699 174.504 255.196 161.527 255.196 161.527C255.196 161.527 250.327 147.881 251.83 143.849C253.861 138.398 273.792 139.237 277.371 137.033C280.95 134.828 280.516 127.719 280.516 127.719L307.778 124.972C307.778 124.972 308.585 133.01 310.253 135.374C313.498 139.965 323.579 134.362 331.599 143.539C345.931 159.939 320.87 194.944 312.719 217.414C312.719 217.414 316.55 222.438 310.934 227.826Z" fill="#FF7A46"/>
<path d="M301.643 136.374L278.735 139.492C278.355 139.544 278.088 139.895 278.14 140.276C278.187 140.625 278.486 140.879 278.828 140.879L278.923 140.872L301.83 137.755C302.211 137.703 302.477 137.352 302.426 136.971C302.378 136.621 302.08 136.368 301.737 136.368L301.643 136.374Z" fill="#F5222D"/>
<path d="M296.135 140.466L280.233 143.868C279.857 143.948 279.618 144.318 279.698 144.695C279.772 145.039 280.089 145.27 280.43 145.244L280.524 145.23L296.426 141.828C296.802 141.748 297.041 141.378 296.961 141.002C296.887 140.657 296.57 140.426 296.229 140.452L296.135 140.466Z" fill="#F5222D"/>
<path d="M309.032 176.63C308.751 176.368 308.31 176.383 308.048 176.665L307.938 176.778C307.782 176.93 307.536 177.153 307.2 177.425C306.467 178.02 305.587 178.616 304.562 179.174C300.509 181.379 295.51 182.341 289.563 181.361L289.051 181.272C286.879 180.876 281.762 180.933 274.506 181.323L272.485 181.437C271.458 181.498 270.408 181.563 269.34 181.634L268.266 181.706C266.332 181.838 264.433 181.977 262.628 182.118L259.066 182.408C258.683 182.441 258.4 182.779 258.433 183.162C258.466 183.546 258.804 183.829 259.186 183.796L261.418 183.611L263.644 183.437C265.169 183.32 266.752 183.205 268.36 183.096L270.49 182.955C271.542 182.888 272.574 182.826 273.581 182.769L275.977 182.642C282.214 182.333 286.701 182.301 288.663 182.618L288.802 182.642C295.299 183.825 300.788 182.813 305.226 180.398C306.329 179.798 307.279 179.154 308.075 178.508L308.376 178.258C308.7 177.982 308.93 177.761 309.066 177.615C309.328 177.333 309.313 176.893 309.032 176.63Z" fill="#F5222D"/>
<path d="M255.634 152.805C255.282 152.793 254.982 153.045 254.924 153.383L254.915 153.477L254.635 161.654L254.485 162.003C254.326 162.382 254.148 162.816 253.957 163.299C253.412 164.675 252.867 166.165 252.358 167.714C251.669 169.811 251.1 171.853 250.694 173.782C250.178 176.231 249.942 178.411 250.038 180.26C250.19 183.189 251.004 186.894 252.357 191.207C253.021 193.322 253.803 195.543 254.678 197.834C255.693 200.492 256.78 203.106 257.868 205.564L258.417 206.792L259.111 208.3C259.204 208.499 259.275 208.648 259.321 208.744C259.487 209.091 259.903 209.237 260.249 209.07C260.595 208.903 260.741 208.487 260.575 208.14L260.182 207.303L259.685 206.217C259.511 205.832 259.329 205.426 259.14 205C258.062 202.562 256.983 199.97 255.977 197.337C255.112 195.071 254.34 192.876 253.685 190.789C252.364 186.579 251.572 182.977 251.427 180.188C251.339 178.477 251.563 176.41 252.056 174.069C252.45 172.195 253.005 170.201 253.68 168.149C254.096 166.882 254.538 165.654 254.983 164.497L255.251 163.812C255.401 163.434 255.542 163.086 255.672 162.773L255.961 162.092C255.985 162.038 256.002 161.981 256.011 161.923L256.02 161.835L256.305 153.525C256.319 153.141 256.018 152.818 255.634 152.805Z" fill="#F5222D"/>
<path fill-rule="evenodd" clip-rule="evenodd" d="M277.155 304.273L251.244 279.603C251.244 279.603 254.301 251.296 266.639 238.133L313.788 232.909C313.788 232.909 333.295 242.44 342.416 278.284L300.753 302.692L277.155 304.273Z" fill="#E4EBF7"/>
<path fill-rule="evenodd" clip-rule="evenodd" d="M314.933 233.379L266.639 238.133L267.283 230.632L312.755 225.817L314.933 233.379Z" fill="#E4EBF7"/>
<path d="M283.497 236.897C283.209 236.885 282.966 237.11 282.955 237.398C282.77 242.015 282.738 247.002 282.845 252.307C283.043 262.129 283.703 272.638 284.681 283.249L284.875 285.307C285.2 288.702 285.541 291.917 285.883 294.898L286.155 297.225L286.579 300.604C286.617 300.89 286.88 301.091 287.165 301.052C287.451 301.014 287.651 300.751 287.613 300.465L287.351 298.408C287.249 297.58 287.138 296.663 287.022 295.664L286.817 293.88C286.442 290.557 286.071 286.957 285.72 283.153C284.745 272.565 284.086 262.081 283.888 252.286C283.782 247.001 283.814 242.034 283.998 237.44C284.009 237.152 283.785 236.909 283.497 236.897Z" fill="#A3B5D6"/>
<path d="M314.784 233.252L267.435 237.658C267.148 237.684 266.937 237.939 266.964 238.226C266.988 238.485 267.196 238.682 267.447 238.699L267.532 238.698L314.881 234.292C315.168 234.265 315.379 234.011 315.352 233.723C315.328 233.465 315.12 233.268 314.869 233.25L314.784 233.252Z" fill="#A3B5D6"/>
<path fill-rule="evenodd" clip-rule="evenodd" d="M296.538 382.184C290.127 324.311 287.101 260.423 290.621 247.106C290.621 247.106 296.013 238.614 316.972 248.043C341.411 259.037 342.185 279.858 342.185 279.858L352.83 376.471C353.414 384.161 355.752 406.516 326.335 410.553C297.377 414.527 296.677 383.445 296.538 382.184Z" fill="#E4EBF7"/>
<path fill-rule="evenodd" clip-rule="evenodd" d="M333.517 217.611C333.517 217.611 314.643 176.996 311.707 166.88C304.619 142.444 315.606 137.674 328.224 143.268C343.434 150.01 361.87 216.384 361.87 216.384C361.87 216.384 363.502 224.802 353.619 229.436C341.938 234.913 333.517 217.611 333.517 217.611Z" fill="#FFC999"/>
<path fill-rule="evenodd" clip-rule="evenodd" d="M322.154 192.901C320.537 188.287 295.036 149.188 317.267 139.259C331.769 132.782 339.589 146.12 352.286 180.331L322.154 192.901Z" fill="#FF7A46"/>
<path fill-rule="evenodd" clip-rule="evenodd" d="M263.082 221.935C263.501 226.183 267.025 229.447 271.286 229.539L346.211 231.158C354.815 231.343 361.701 224.057 361.04 215.467C360.394 207.071 352.796 200.97 344.469 202.159L270.277 212.755C265.81 213.393 262.639 217.44 263.082 221.935Z" fill="#FFC999"/>
<path fill-rule="evenodd" clip-rule="evenodd" d="M269.215 241.223L252.743 189.639C252.47 188.788 251.686 188.207 250.794 188.194L204.602 187.569C203.168 187.549 202.147 188.959 202.613 190.317L219.809 240.532C220.084 241.34 220.828 241.896 221.679 241.933L267.148 243.929C268.59 243.992 269.655 242.599 269.215 241.223Z" fill="#253368"/>
<path fill-rule="evenodd" clip-rule="evenodd" d="M266.78 240.594L250.594 189.908C250.265 188.879 249.316 188.175 248.236 188.16L201.472 187.526C200.469 187.512 199.755 188.499 200.081 189.449L217.516 240.358C217.822 241.253 218.643 241.868 219.587 241.909L264.278 243.872C266.025 243.948 267.312 242.26 266.78 240.594Z" fill="#253368"/>
<path fill-rule="evenodd" clip-rule="evenodd" d="M244.262 193.044C243.74 193.626 243.928 194.649 244.682 195.329C245.438 196.009 246.473 196.088 246.996 195.506C247.52 194.923 247.332 193.901 246.576 193.22C245.822 192.541 244.785 192.462 244.262 193.044Z" fill="#ADC6FF"/>
<path fill-rule="evenodd" clip-rule="evenodd" d="M244.883 193.653C244.612 193.955 244.709 194.486 245.101 194.84C245.493 195.191 246.031 195.233 246.302 194.931C246.574 194.628 246.476 194.098 246.084 193.745C245.693 193.393 245.154 193.351 244.883 193.653Z" fill="#E4EBF7"/>
<path fill-rule="evenodd" clip-rule="evenodd" d="M248.653 231.524C245.999 231.266 244.602 230.156 244.854 227.942C241.661 226.936 242.019 224.23 242.019 224.23C242.019 224.23 235.874 224.135 234.84 221.508C234.439 220.486 235.218 219.393 236.311 219.319C249.475 218.426 258.862 211.444 258.862 211.444C258.862 211.444 253.688 203.835 254.235 200.325C254.396 199.285 255.753 198.951 256.386 199.788C261.813 206.958 272.697 212.581 272.697 212.581C272.697 212.581 285.761 224.833 271.589 230.39C271.589 230.39 260.788 234.698 253.265 234.154C249.705 233.895 248.653 231.524 248.653 231.524Z" fill="#FFC999"/>
<path d="M251.701 221.893C251.591 221.697 251.342 221.626 251.146 221.736C250.203 222.264 249.101 222.694 247.872 223.034C246.408 223.438 244.836 223.697 243.254 223.837C242.459 223.908 241.782 223.94 241.27 223.948L240.901 223.95C240.675 223.947 240.49 224.127 240.487 224.352C240.485 224.553 240.627 224.721 240.816 224.758L240.89 224.766L241.088 224.766C241.638 224.764 242.407 224.732 243.326 224.65C244.954 224.506 246.573 224.239 248.089 223.821C249.377 223.465 250.539 223.011 251.544 222.449C251.74 222.339 251.81 222.09 251.701 221.893Z" fill="#DD936F"/>
<path d="M252.94 225.943C252.842 225.74 252.599 225.655 252.396 225.753L252.03 225.924C250.467 226.63 248.787 227.083 247.1 227.332C246.059 227.486 245.225 227.535 244.706 227.532C244.474 227.529 244.289 227.709 244.286 227.934C244.284 228.135 244.426 228.303 244.615 228.34L244.689 228.348L244.86 228.348L245.225 228.338C245.751 228.315 246.43 228.256 247.219 228.14C248.976 227.881 250.727 227.408 252.366 226.668L252.751 226.488C252.954 226.39 253.038 226.146 252.94 225.943Z" fill="#DD936F"/>
<path d="M255.282 230.468C255.184 230.265 254.94 230.18 254.738 230.279C254.304 230.488 253.28 230.684 251.888 230.845C251.177 230.927 250.413 230.996 249.649 231.051L248.91 231.1L248.632 231.116C248.407 231.128 248.234 231.319 248.245 231.544C248.257 231.77 248.449 231.943 248.673 231.931L248.959 231.915C249.185 231.901 249.437 231.885 249.708 231.865C250.483 231.809 251.257 231.74 251.982 231.656L252.555 231.585C253.748 231.428 254.618 231.243 255.092 231.014C255.295 230.915 255.38 230.671 255.282 230.468Z" fill="#DD936F"/>
<path d="M344.487 201.751L344.413 201.755L272.074 211.648C271.851 211.679 271.695 211.885 271.725 212.108C271.752 212.306 271.918 212.452 272.111 212.46L272.184 212.457L344.524 202.563C344.747 202.533 344.903 202.327 344.873 202.104C344.846 201.905 344.68 201.76 344.487 201.751Z" fill="#DD936F"/>
<path d="M312.995 171.83C312.839 171.478 312.427 171.32 312.076 171.476C311.754 171.619 311.595 171.977 311.691 172.307L311.723 172.396L321.128 193.576C321.271 193.899 321.629 194.058 321.959 193.962L322.047 193.929L351.825 180.593C352.176 180.436 352.333 180.024 352.176 179.673C352.032 179.351 351.674 179.192 351.345 179.288L351.257 179.321L322.117 192.371L312.995 171.83Z" fill="#F5222D"/>
</g>
<defs>
<linearGradient id="paint0_linear_258_3" x1="387" y1="149.5" x2="133" y2="150" gradientUnits="userSpaceOnUse">
<stop stop-color="#FA4A0C"/>
<stop offset="1" stop-color="#FA4A0C" stop-opacity="0"/>
</linearGradient>
<linearGradient id="paint1_linear_258_3" x1="387" y1="149.5" x2="133" y2="150" gradientUnits="userSpaceOnUse">
<stop stop-color="#FA4A0C"/>
<stop offset="1" stop-color="#FA4A0C" stop-opacity="0"/>
</linearGradient>
<linearGradient id="paint2_linear_258_3" x1="387" y1="149.5" x2="133" y2="150" gradientUnits="userSpaceOnUse">
<stop stop-color="#FA4A0C"/>
<stop offset="1" stop-color="#FA4A0C" stop-opacity="0"/>
</linearGradient>
<clipPath id="clip0_258_3">
<path d="M0 0H414V228C414 247.882 397.882 264 378 264H36C16.1177 264 0 247.882 0 228V0Z" fill="white"/>
</clipPath>
<clipPath id="clip1_258_3">
<rect width="45" height="44" fill="white" transform="translate(95 164) rotate(30)"/>
</clipPath>
<clipPath id="clip2_258_3">
<rect width="38.4547" height="38.4547" fill="white" transform="translate(354 198.953) rotate(-15)"/>
</clipPath>
<clipPath id="clip3_258_3">
<rect width="47.8748" height="47.8748" fill="white" transform="translate(37.9375 79) rotate(30)"/>
</clipPath>
</defs>
</svg>
